<svg width="139" height="148" viewBox="0 0 139 148" fill="none" xmlns="http://www.w3.org/2000/svg">
<g clip-path="url(#clip0_10402_194264)">
<path fill-rule="evenodd" clip-rule="evenodd" d="M64.3503 66.2442C61.4631 65.9184 59.1319 66.1829 57.3608 66.5152C40.4412 69.769 36.9344 87.5622 38.5112 104.567C38.9315 109.123 40.9546 116.085 44.4289 120.637C46.8691 123.837 50.006 125.87 53.7721 125.304C57.8812 124.705 61.1078 121.118 63.4674 116.351C66.8853 109.46 68.5153 100.123 68.6817 94.565C68.8718 88.1538 68.1987 78.1365 66.3988 68.3633C69.5095 68.9861 73.1797 70.3057 77.4054 72.8807C79.2867 74.018 81.1965 75.8278 82.9971 78.0183C80.4761 81.0643 78.4304 84.8555 77.0321 89.3299C75.8616 93.0934 74.7841 101.639 75.9579 108.439C76.7991 113.293 78.805 117.242 82.4685 118.403C87.0194 119.836 90.0044 117.684 91.8323 114.025C94.4086 108.875 94.5894 100.634 93.7361 96.1079C92.7409 90.8424 89.3435 83.7287 85.1994 78.2315C94.2464 68.4873 108.826 67.9626 120.862 78.8293C121.223 79.1486 121.733 79.1086 122.002 78.7423C122.265 78.36 122.181 77.7793 121.82 77.46C109.084 65.9652 93.6486 66.4926 84.0634 76.79C82.1424 74.4631 80.0977 72.5222 78.0883 71.3053C73.4321 68.4721 69.4099 67.0816 66.0379 66.4811C65.673 64.6539 65.2664 62.8418 64.8144 61.064C62.7885 53.0791 59.8716 45.9543 55.9964 41.9773C47.0425 32.7859 36.0449 33.2962 27.1334 38.859C18.3093 44.3724 11.5679 54.8315 10.9451 65.4592C10.9164 65.9547 11.2601 66.4238 11.7082 66.496C12.1564 66.5682 12.5457 66.2304 12.5743 65.735C13.1666 55.6214 19.6238 45.6959 28.0243 40.4608C36.3377 35.2751 46.5966 34.6893 54.9454 43.2542C58.6304 47.048 61.32 53.8235 63.2466 61.4129C63.6479 62.9933 64.0134 64.6047 64.3503 66.2442ZM84.1319 79.4605C81.7935 82.3329 79.8866 85.8764 78.5833 90.065C77.4684 93.6468 76.4377 101.762 77.5623 108.257C78.2589 112.282 79.7431 115.701 82.782 116.655C86.4937 117.834 88.8985 116.015 90.3882 113.035C92.7967 108.251 92.9348 100.547 92.138 96.324C91.2058 91.3772 88.0218 84.6539 84.1319 79.4605ZM64.7114 68.0906C61.8319 67.7261 59.5195 67.9837 57.7749 68.3065C41.7317 71.3885 38.6412 88.4208 40.1347 104.539C40.5245 108.783 42.3901 115.28 45.6349 119.538C47.6704 122.201 50.2716 123.978 53.4208 123.508C57.1031 122.973 59.9075 119.645 62.0238 115.379C65.3223 108.729 66.8873 99.7031 67.0498 94.3441C67.2402 87.9328 66.5553 77.866 64.7114 68.0906Z" fill="url(#paint0_linear_10402_194264)"/>
<path fill-rule="evenodd" clip-rule="evenodd" d="M120.689 77.666C119.857 77.6064 117.461 77.4449 117.099 77.4315C116.086 77.401 115.587 77.5448 115.1 77.7563C114.71 77.9323 114.333 78.176 113.562 78.3998C113.135 78.5177 112.919 79.0267 113.07 79.5114C113.221 79.996 113.686 80.2779 114.113 80.16C114.808 79.9457 115.224 79.7417 115.587 79.5573C116.008 79.3519 116.343 79.2132 117.199 79.2464C117.615 79.2583 119.946 79.6048 121.013 79.5259C121.571 79.4869 121.922 79.2706 122.048 79.0994C122.229 78.8545 122.35 78.4873 122.344 77.9865C122.333 77.3435 122.103 76.3483 121.868 75.2293C121.644 74.1778 121.412 72.9857 121.426 71.8668C121.442 70.9265 121.639 70.047 122.27 69.4245C122.594 69.1103 122.607 68.5484 122.294 68.158C121.982 67.7675 121.462 67.7031 121.138 68.0173C120.177 68.9385 119.819 70.2532 119.796 71.6809C119.777 72.9455 120.023 74.2943 120.28 75.4954C120.431 76.2137 120.587 76.8765 120.666 77.405C120.679 77.49 120.684 77.578 120.689 77.666Z" fill="url(#paint1_linear_10402_194264)"/>
</g>
<defs>
<linearGradient id="paint0_linear_10402_194264" x1="42.0451" y1="138.128" x2="46.8665" y2="-1.31129" gradientUnits="userSpaceOnUse">
<stop offset="0.107292" stop-color="#FFB61F"/>
<stop offset="0.961458" stop-color="#FF671E"/>
</linearGradient>
<linearGradient id="paint1_linear_10402_194264" x1="114.691" y1="82.2691" x2="114.738" y2="66.1843" gradientUnits="userSpaceOnUse">
<stop offset="0.107292" stop-color="#FFB61F"/>
<stop offset="0.961458" stop-color="#FF671E"/>
</linearGradient>
<clipPath id="clip0_10402_194264">
<rect width="119.591" height="104.209" fill="white" transform="translate(40.5176 147.824) rotate(-109.804)"/>
</clipPath>
</defs>
</svg>
