<svg width="805" height="531" viewBox="0 0 805 531" fill="none" xmlns="http://www.w3.org/2000/svg">
<g clip-path="url(#clip0_10402_193851)">
<g filter="url(#filter0_d_10402_193851)">
<rect x="-1" y="99" width="445" height="386" rx="16" fill="white"/>
<line x1="45.5" y1="163" x2="45.5" y2="427" stroke="#F0F2F0"/>
<line x1="102.5" y1="163" x2="102.5" y2="427" stroke="#F0F2F0"/>
<line x1="159.5" y1="163" x2="159.5" y2="427" stroke="#F0F2F0"/>
<line x1="216.5" y1="163" x2="216.5" y2="427" stroke="#F0F2F0"/>
<line x1="273.5" y1="163" x2="273.5" y2="427" stroke="#F0F2F0"/>
<line x1="330.5" y1="163" x2="330.5" y2="427" stroke="#F0F2F0"/>
<line x1="387.5" y1="163" x2="387.5" y2="427" stroke="#F0F2F0"/>
<g clip-path="url(#clip1_10402_193851)">
<path d="M84 316C15.7438 301.299 18.5 378 2 368.5H-26V517L484 512.5V426L442.5 346C404 327.5 413.5 281 357.5 281.5C301.5 282 268 210 226.5 210C186.434 210 149 330 84 316Z" fill="url(#paint0_linear_10402_193851)" fill-opacity="0.46" stroke="#00AF43" stroke-width="2"/>
</g>
<g filter="url(#filter1_d_10402_193851)">
<circle cx="218" cy="211" r="8" fill="white"/>
<circle cx="218" cy="211" r="10" stroke="#00AF43" stroke-width="4"/>
</g>
<rect x="183" y="195" width="72" height="276" rx="8" fill="url(#paint1_linear_10402_193851)"/>
<path d="M32.128 448V439.6H33.412L37.084 445.732H36.412L40.024 439.6H41.308L41.32 448H39.844L39.832 441.916H40.144L37.072 447.04H36.376L33.256 441.916H33.616V448H32.128ZM42.4009 448L46.1809 439.6H47.7169L51.5089 448H49.8769L46.6249 440.428H47.2489L44.0089 448H42.4009ZM44.1409 446.056L44.5609 444.832H49.0969L49.5169 446.056H44.1409ZM54.1373 448V444.676L54.4853 445.636L50.8373 439.6H52.5053L55.4333 444.46H54.4973L57.4493 439.6H58.9853L55.3373 445.636L55.6973 444.676V448H54.1373Z" fill="#98A69D"/>
<path d="M93.436 448.12C92.9 448.12 92.404 448.016 91.948 447.808C91.5 447.6 91.132 447.3 90.844 446.908L91.732 445.84C91.964 446.16 92.216 446.4 92.488 446.56C92.768 446.72 93.072 446.8 93.4 446.8C94.272 446.8 94.708 446.284 94.708 445.252V440.908H91.72V439.6H96.268V445.168C96.268 446.16 96.024 446.9 95.536 447.388C95.056 447.876 94.356 448.12 93.436 448.12ZM102.068 448.12C100.916 448.12 100.012 447.796 99.3561 447.148C98.7081 446.5 98.3841 445.564 98.3841 444.34V439.6H99.9441V444.28C99.9441 445.144 100.128 445.772 100.496 446.164C100.872 446.556 101.4 446.752 102.08 446.752C102.76 446.752 103.284 446.556 103.652 446.164C104.02 445.772 104.204 445.144 104.204 444.28V439.6H105.74V444.34C105.74 445.564 105.412 446.5 104.756 447.148C104.108 447.796 103.212 448.12 102.068 448.12ZM107.925 448V439.6H109.209L114.477 446.068H113.841V439.6H115.389V448H114.105L108.837 441.532H109.473V448H107.925Z" fill="#98A69D"/>
<path d="M151.436 448.12C150.9 448.12 150.404 448.016 149.948 447.808C149.5 447.6 149.132 447.3 148.844 446.908L149.732 445.84C149.964 446.16 150.216 446.4 150.488 446.56C150.768 446.72 151.072 446.8 151.4 446.8C152.272 446.8 152.708 446.284 152.708 445.252V440.908H149.72V439.6H154.268V445.168C154.268 446.16 154.024 446.9 153.536 447.388C153.056 447.876 152.356 448.12 151.436 448.12ZM160.068 448.12C158.916 448.12 158.012 447.796 157.356 447.148C156.708 446.5 156.384 445.564 156.384 444.34V439.6H157.944V444.28C157.944 445.144 158.128 445.772 158.496 446.164C158.872 446.556 159.4 446.752 160.08 446.752C160.76 446.752 161.284 446.556 161.652 446.164C162.02 445.772 162.204 445.144 162.204 444.28V439.6H163.74V444.34C163.74 445.564 163.412 446.5 162.756 447.148C162.108 447.796 161.212 448.12 160.068 448.12ZM165.925 448V439.6H167.485V446.68H171.877V448H165.925Z" fill="#98A69D"/>
<path d="M203.94 448L207.72 439.6H209.256L213.048 448H211.416L208.164 440.428H208.788L205.548 448H203.94ZM205.68 446.056L206.1 444.832H210.636L211.056 446.056H205.68ZM217.553 448.12C216.401 448.12 215.497 447.796 214.841 447.148C214.193 446.5 213.869 445.564 213.869 444.34V439.6H215.429V444.28C215.429 445.144 215.613 445.772 215.98 446.164C216.357 446.556 216.885 446.752 217.565 446.752C218.245 446.752 218.769 446.556 219.137 446.164C219.505 445.772 219.689 445.144 219.689 444.28V439.6H221.225V444.34C221.225 445.564 220.897 446.5 220.241 447.148C219.593 447.796 218.697 448.12 217.553 448.12ZM227.333 448.12C226.677 448.12 226.073 448.016 225.521 447.808C224.977 447.592 224.501 447.292 224.093 446.908C223.685 446.516 223.369 446.056 223.145 445.528C222.921 445 222.809 444.424 222.809 443.8C222.809 443.176 222.921 442.6 223.145 442.072C223.369 441.544 223.685 441.088 224.093 440.704C224.509 440.312 224.993 440.012 225.545 439.804C226.097 439.588 226.701 439.48 227.357 439.48C228.069 439.48 228.709 439.596 229.277 439.828C229.853 440.06 230.337 440.4 230.729 440.848L229.745 441.808C229.417 441.48 229.061 441.24 228.677 441.088C228.301 440.928 227.885 440.848 227.429 440.848C226.989 440.848 226.581 440.92 226.205 441.064C225.829 441.208 225.505 441.412 225.233 441.676C224.961 441.94 224.749 442.252 224.597 442.612C224.453 442.972 224.381 443.368 224.381 443.8C224.381 444.224 224.453 444.616 224.597 444.976C224.749 445.336 224.961 445.652 225.233 445.924C225.505 446.188 225.825 446.392 226.193 446.536C226.561 446.68 226.969 446.752 227.417 446.752C227.833 446.752 228.233 446.688 228.617 446.56C229.009 446.424 229.381 446.2 229.733 445.888L230.621 447.052C230.181 447.404 229.669 447.672 229.085 447.856C228.509 448.032 227.925 448.12 227.333 448.12ZM229.145 446.848V443.704H230.621V447.052L229.145 446.848Z" fill="#2A3342"/>
<path d="M267.732 448.12C267.076 448.12 266.448 448.028 265.848 447.844C265.248 447.652 264.772 447.408 264.42 447.112L264.96 445.9C265.296 446.164 265.712 446.384 266.208 446.56C266.704 446.736 267.212 446.824 267.732 446.824C268.172 446.824 268.528 446.776 268.8 446.68C269.072 446.584 269.272 446.456 269.4 446.296C269.528 446.128 269.592 445.94 269.592 445.732C269.592 445.476 269.5 445.272 269.316 445.12C269.132 444.96 268.892 444.836 268.596 444.748C268.308 444.652 267.984 444.564 267.624 444.484C267.272 444.404 266.916 444.312 266.556 444.208C266.204 444.096 265.88 443.956 265.584 443.788C265.296 443.612 265.06 443.38 264.876 443.092C264.692 442.804 264.6 442.436 264.6 441.988C264.6 441.532 264.72 441.116 264.96 440.74C265.208 440.356 265.58 440.052 266.076 439.828C266.58 439.596 267.216 439.48 267.984 439.48C268.488 439.48 268.988 439.544 269.484 439.672C269.98 439.8 270.412 439.984 270.78 440.224L270.288 441.436C269.912 441.212 269.524 441.048 269.124 440.944C268.724 440.832 268.34 440.776 267.972 440.776C267.54 440.776 267.188 440.828 266.916 440.932C266.652 441.036 266.456 441.172 266.328 441.34C266.208 441.508 266.148 441.7 266.148 441.916C266.148 442.172 266.236 442.38 266.412 442.54C266.596 442.692 266.832 442.812 267.12 442.9C267.416 442.988 267.744 443.076 268.104 443.164C268.464 443.244 268.82 443.336 269.172 443.44C269.532 443.544 269.856 443.68 270.144 443.848C270.44 444.016 270.676 444.244 270.852 444.532C271.036 444.82 271.128 445.184 271.128 445.624C271.128 446.072 271.004 446.488 270.756 446.872C270.516 447.248 270.144 447.552 269.64 447.784C269.136 448.008 268.5 448.12 267.732 448.12ZM274.115 443.092H278.291V444.376H274.115V443.092ZM274.235 446.692H278.975V448H272.675V439.6H278.807V440.908H274.235V446.692ZM280.714 448V439.6H284.17C284.914 439.6 285.55 439.72 286.078 439.96C286.614 440.2 287.026 440.544 287.314 440.992C287.602 441.44 287.746 441.972 287.746 442.588C287.746 443.204 287.602 443.736 287.314 444.184C287.026 444.632 286.614 444.976 286.078 445.216C285.55 445.456 284.914 445.576 284.17 445.576H281.578L282.274 444.844V448H280.714ZM282.274 445.012L281.578 444.256H284.098C284.786 444.256 285.302 444.112 285.646 443.824C285.998 443.528 286.174 443.116 286.174 442.588C286.174 442.052 285.998 441.64 285.646 441.352C285.302 441.064 284.786 440.92 284.098 440.92H281.578L282.274 440.152V445.012Z" fill="#98A69D"/>
<path d="M326.064 448.12C325.408 448.12 324.804 448.012 324.252 447.796C323.7 447.58 323.22 447.28 322.812 446.896C322.404 446.504 322.088 446.048 321.864 445.528C321.64 445 321.528 444.424 321.528 443.8C321.528 443.176 321.64 442.604 321.864 442.084C322.088 441.556 322.404 441.1 322.812 440.716C323.22 440.324 323.7 440.02 324.252 439.804C324.804 439.588 325.404 439.48 326.052 439.48C326.708 439.48 327.308 439.588 327.852 439.804C328.404 440.02 328.884 440.324 329.292 440.716C329.7 441.1 330.016 441.556 330.24 442.084C330.464 442.604 330.576 443.176 330.576 443.8C330.576 444.424 330.464 445 330.24 445.528C330.016 446.056 329.7 446.512 329.292 446.896C328.884 447.28 328.404 447.58 327.852 447.796C327.308 448.012 326.712 448.12 326.064 448.12ZM326.052 446.752C326.476 446.752 326.868 446.68 327.228 446.536C327.588 446.392 327.9 446.188 328.164 445.924C328.428 445.652 328.632 445.34 328.776 444.988C328.928 444.628 329.004 444.232 329.004 443.8C329.004 443.368 328.928 442.976 328.776 442.624C328.632 442.264 328.428 441.952 328.164 441.688C327.9 441.416 327.588 441.208 327.228 441.064C326.868 440.92 326.476 440.848 326.052 440.848C325.628 440.848 325.236 440.92 324.876 441.064C324.524 441.208 324.212 441.416 323.94 441.688C323.676 441.952 323.468 442.264 323.316 442.624C323.172 442.976 323.1 443.368 323.1 443.8C323.1 444.224 323.172 444.616 323.316 444.976C323.468 445.336 323.676 445.652 323.94 445.924C324.204 446.188 324.516 446.392 324.876 446.536C325.236 446.68 325.628 446.752 326.052 446.752ZM336.118 448.12C335.478 448.12 334.882 448.016 334.33 447.808C333.786 447.592 333.31 447.292 332.902 446.908C332.502 446.516 332.19 446.056 331.966 445.528C331.742 445 331.63 444.424 331.63 443.8C331.63 443.176 331.742 442.6 331.966 442.072C332.19 441.544 332.506 441.088 332.914 440.704C333.322 440.312 333.798 440.012 334.342 439.804C334.886 439.588 335.482 439.48 336.13 439.48C336.818 439.48 337.446 439.6 338.014 439.84C338.582 440.072 339.062 440.42 339.454 440.884L338.446 441.832C338.142 441.504 337.802 441.26 337.426 441.1C337.05 440.932 336.642 440.848 336.202 440.848C335.762 440.848 335.358 440.92 334.99 441.064C334.63 441.208 334.314 441.412 334.042 441.676C333.778 441.94 333.57 442.252 333.418 442.612C333.274 442.972 333.202 443.368 333.202 443.8C333.202 444.232 333.274 444.628 333.418 444.988C333.57 445.348 333.778 445.66 334.042 445.924C334.314 446.188 334.63 446.392 334.99 446.536C335.358 446.68 335.762 446.752 336.202 446.752C336.642 446.752 337.05 446.672 337.426 446.512C337.802 446.344 338.142 446.092 338.446 445.756L339.454 446.716C339.062 447.172 338.582 447.52 338.014 447.76C337.446 448 336.814 448.12 336.118 448.12ZM342.559 448V440.92H339.775V439.6H346.903V440.92H344.119V448H342.559Z" fill="#98A69D"/>
<path d="M380.128 448V439.6H381.412L386.68 446.068H386.044V439.6H387.592V448H386.308L381.04 441.532H381.676V448H380.128ZM393.779 448.12C393.123 448.12 392.519 448.012 391.967 447.796C391.415 447.58 390.935 447.28 390.527 446.896C390.119 446.504 389.803 446.048 389.579 445.528C389.355 445 389.243 444.424 389.243 443.8C389.243 443.176 389.355 442.604 389.579 442.084C389.803 441.556 390.119 441.1 390.527 440.716C390.935 440.324 391.415 440.02 391.967 439.804C392.519 439.588 393.119 439.48 393.767 439.48C394.423 439.48 395.023 439.588 395.567 439.804C396.119 440.02 396.599 440.324 397.007 440.716C397.415 441.1 397.731 441.556 397.955 442.084C398.179 442.604 398.291 443.176 398.291 443.8C398.291 444.424 398.179 445 397.955 445.528C397.731 446.056 397.415 446.512 397.007 446.896C396.599 447.28 396.119 447.58 395.567 447.796C395.023 448.012 394.427 448.12 393.779 448.12ZM393.767 446.752C394.191 446.752 394.583 446.68 394.943 446.536C395.303 446.392 395.615 446.188 395.879 445.924C396.143 445.652 396.347 445.34 396.491 444.988C396.643 444.628 396.719 444.232 396.719 443.8C396.719 443.368 396.643 442.976 396.491 442.624C396.347 442.264 396.143 441.952 395.879 441.688C395.615 441.416 395.303 441.208 394.943 441.064C394.583 440.92 394.191 440.848 393.767 440.848C393.343 440.848 392.951 440.92 392.591 441.064C392.239 441.208 391.927 441.416 391.655 441.688C391.391 441.952 391.183 442.264 391.031 442.624C390.887 442.976 390.815 443.368 390.815 443.8C390.815 444.224 390.887 444.616 391.031 444.976C391.183 445.336 391.391 445.652 391.655 445.924C391.919 446.188 392.231 446.392 392.591 446.536C392.951 446.68 393.343 446.752 393.767 446.752ZM402.171 448L398.499 439.6H400.191L403.467 447.196H402.495L405.807 439.6H407.367L403.707 448H402.171Z" fill="#98A69D"/>
<path d="M24.88 145V131H30.64C31.88 131 32.94 131.2 33.82 131.6C34.7133 132 35.4 132.573 35.88 133.32C36.36 134.067 36.6 134.953 36.6 135.98C36.6 137.007 36.36 137.893 35.88 138.64C35.4 139.373 34.7133 139.94 33.82 140.34C32.94 140.727 31.88 140.92 30.64 140.92H26.32L27.48 139.74V145H24.88ZM34.04 145L30.5 139.92H33.28L36.84 145H34.04ZM27.48 140.02L26.32 138.78H30.52C31.6667 138.78 32.5267 138.533 33.1 138.04C33.6867 137.547 33.98 136.86 33.98 135.98C33.98 135.087 33.6867 134.4 33.1 133.92C32.5267 133.44 31.6667 133.2 30.52 133.2H26.32L27.48 131.92V140.02ZM44.2889 145.14C43.1022 145.14 42.0622 144.907 41.1689 144.44C40.2889 143.96 39.6022 143.307 39.1089 142.48C38.6289 141.653 38.3889 140.713 38.3889 139.66C38.3889 138.593 38.6222 137.653 39.0889 136.84C39.5689 136.013 40.2222 135.367 41.0489 134.9C41.8889 134.433 42.8422 134.2 43.9089 134.2C44.9489 134.2 45.8756 134.427 46.6889 134.88C47.5022 135.333 48.1422 135.973 48.6089 136.8C49.0756 137.627 49.3089 138.6 49.3089 139.72C49.3089 139.827 49.3022 139.947 49.2889 140.08C49.2889 140.213 49.2822 140.34 49.2689 140.46H40.3689V138.8H47.9489L46.9689 139.32C46.9822 138.707 46.8556 138.167 46.5889 137.7C46.3222 137.233 45.9556 136.867 45.4889 136.6C45.0356 136.333 44.5089 136.2 43.9089 136.2C43.2956 136.2 42.7556 136.333 42.2889 136.6C41.8356 136.867 41.4756 137.24 41.2089 137.72C40.9556 138.187 40.8289 138.74 40.8289 139.38V139.78C40.8289 140.42 40.9756 140.987 41.2689 141.48C41.5622 141.973 41.9756 142.353 42.5089 142.62C43.0422 142.887 43.6556 143.02 44.3489 143.02C44.9489 143.02 45.4889 142.927 45.9689 142.74C46.4489 142.553 46.8756 142.26 47.2489 141.86L48.5889 143.4C48.1089 143.96 47.5022 144.393 46.7689 144.7C46.0489 144.993 45.2222 145.14 44.2889 145.14ZM54.355 145L49.775 134.32H52.375L56.315 143.74H55.035L59.115 134.32H61.515L56.935 145H54.355ZM67.8045 145.14C66.6179 145.14 65.5779 144.907 64.6845 144.44C63.8045 143.96 63.1179 143.307 62.6245 142.48C62.1445 141.653 61.9045 140.713 61.9045 139.66C61.9045 138.593 62.1379 137.653 62.6045 136.84C63.0845 136.013 63.7379 135.367 64.5645 134.9C65.4045 134.433 66.3579 134.2 67.4245 134.2C68.4645 134.2 69.3912 134.427 70.2045 134.88C71.0179 135.333 71.6579 135.973 72.1245 136.8C72.5912 137.627 72.8245 138.6 72.8245 139.72C72.8245 139.827 72.8179 139.947 72.8045 140.08C72.8045 140.213 72.7979 140.34 72.7845 140.46H63.8845V138.8H71.4645L70.4845 139.32C70.4979 138.707 70.3712 138.167 70.1045 137.7C69.8379 137.233 69.4712 136.867 69.0045 136.6C68.5512 136.333 68.0245 136.2 67.4245 136.2C66.8112 136.2 66.2712 136.333 65.8045 136.6C65.3512 136.867 64.9912 137.24 64.7245 137.72C64.4712 138.187 64.3445 138.74 64.3445 139.38V139.78C64.3445 140.42 64.4912 140.987 64.7845 141.48C65.0779 141.973 65.4912 142.353 66.0245 142.62C66.5579 142.887 67.1712 143.02 67.8645 143.02C68.4645 143.02 69.0045 142.927 69.4845 142.74C69.9645 142.553 70.3912 142.26 70.7645 141.86L72.1045 143.4C71.6245 143.96 71.0179 144.393 70.2845 144.7C69.5645 144.993 68.7379 145.14 67.8045 145.14ZM81.2859 134.2C82.1393 134.2 82.8993 134.367 83.5659 134.7C84.2459 135.033 84.7793 135.547 85.1659 136.24C85.5526 136.92 85.7459 137.8 85.7459 138.88V145H83.2459V139.2C83.2459 138.253 83.0193 137.547 82.5659 137.08C82.1259 136.613 81.5059 136.38 80.7059 136.38C80.1193 136.38 79.5993 136.5 79.1459 136.74C78.6926 136.98 78.3393 137.34 78.0859 137.82C77.8459 138.287 77.7259 138.88 77.7259 139.6V145H75.2259V134.32H77.6059V137.2L77.1859 136.32C77.5593 135.64 78.0993 135.12 78.8059 134.76C79.5259 134.387 80.3526 134.2 81.2859 134.2ZM93.4373 145.14C92.5307 145.14 91.7307 144.973 91.0373 144.64C90.344 144.293 89.804 143.773 89.4173 143.08C89.0307 142.373 88.8373 141.487 88.8373 140.42V134.32H91.3373V140.08C91.3373 141.04 91.5507 141.76 91.9773 142.24C92.4173 142.707 93.0373 142.94 93.8373 142.94C94.424 142.94 94.9307 142.82 95.3573 142.58C95.7973 142.34 96.1373 141.98 96.3773 141.5C96.6307 141.02 96.7573 140.427 96.7573 139.72V134.32H99.2573V145H96.8773V142.12L97.2973 143C96.9373 143.693 96.4107 144.227 95.7173 144.6C95.024 144.96 94.264 145.14 93.4373 145.14ZM107.551 145.14C106.364 145.14 105.324 144.907 104.431 144.44C103.551 143.96 102.864 143.307 102.371 142.48C101.891 141.653 101.651 140.713 101.651 139.66C101.651 138.593 101.884 137.653 102.351 136.84C102.831 136.013 103.484 135.367 104.311 134.9C105.151 134.433 106.104 134.2 107.171 134.2C108.211 134.2 109.137 134.427 109.951 134.88C110.764 135.333 111.404 135.973 111.871 136.8C112.337 137.627 112.571 138.6 112.571 139.72C112.571 139.827 112.564 139.947 112.551 140.08C112.551 140.213 112.544 140.34 112.531 140.46H103.631V138.8H111.211L110.231 139.32C110.244 138.707 110.117 138.167 109.851 137.7C109.584 137.233 109.217 136.867 108.751 136.6C108.297 136.333 107.771 136.2 107.171 136.2C106.557 136.2 106.017 136.333 105.551 136.6C105.097 136.867 104.737 137.24 104.471 137.72C104.217 138.187 104.091 138.74 104.091 139.38V139.78C104.091 140.42 104.237 140.987 104.531 141.48C104.824 141.973 105.237 142.353 105.771 142.62C106.304 142.887 106.917 143.02 107.611 143.02C108.211 143.02 108.751 142.927 109.231 142.74C109.711 142.553 110.137 142.26 110.511 141.86L111.851 143.4C111.371 143.96 110.764 144.393 110.031 144.7C109.311 144.993 108.484 145.14 107.551 145.14Z" fill="#2A3342"/>
<path d="M126.192 144.128C125.403 144.128 124.635 144.005 123.888 143.76C123.152 143.515 122.549 143.184 122.08 142.768L122.816 141.504C123.189 141.856 123.675 142.144 124.272 142.368C124.869 142.592 125.509 142.704 126.192 142.704C127.024 142.704 127.669 142.528 128.128 142.176C128.597 141.813 128.832 141.328 128.832 140.72C128.832 140.133 128.608 139.664 128.16 139.312C127.723 138.949 127.024 138.768 126.064 138.768H125.168V137.648L128.496 133.552L128.72 134.192H122.592V132.8H129.984V133.888L126.672 137.968L125.84 137.472H126.368C127.723 137.472 128.736 137.776 129.408 138.384C130.091 138.992 130.432 139.765 130.432 140.704C130.432 141.333 130.277 141.909 129.968 142.432C129.659 142.955 129.189 143.371 128.56 143.68C127.941 143.979 127.152 144.128 126.192 144.128ZM136.292 144.128C135.386 144.128 134.602 143.995 133.94 143.728C133.279 143.461 132.767 143.083 132.404 142.592C132.042 142.091 131.86 141.504 131.86 140.832C131.86 140.171 132.031 139.611 132.372 139.152C132.724 138.683 133.231 138.331 133.892 138.096C134.554 137.851 135.354 137.728 136.292 137.728C137.231 137.728 138.031 137.851 138.692 138.096C139.364 138.331 139.876 138.683 140.228 139.152C140.58 139.621 140.756 140.181 140.756 140.832C140.756 141.504 140.575 142.091 140.212 142.592C139.85 143.083 139.332 143.461 138.66 143.728C137.988 143.995 137.199 144.128 136.292 144.128ZM136.292 142.832C137.188 142.832 137.887 142.651 138.388 142.288C138.9 141.915 139.156 141.413 139.156 140.784C139.156 140.165 138.9 139.68 138.388 139.328C137.887 138.965 137.188 138.784 136.292 138.784C135.407 138.784 134.714 138.965 134.212 139.328C133.711 139.68 133.46 140.165 133.46 140.784C133.46 141.413 133.711 141.915 134.212 142.288C134.714 142.651 135.407 142.832 136.292 142.832ZM136.292 138.592C135.439 138.592 134.714 138.48 134.116 138.256C133.519 138.021 133.06 137.691 132.74 137.264C132.42 136.827 132.26 136.309 132.26 135.712C132.26 135.083 132.426 134.544 132.756 134.096C133.098 133.637 133.572 133.285 134.18 133.04C134.788 132.795 135.492 132.672 136.292 132.672C137.103 132.672 137.812 132.795 138.42 133.04C139.028 133.285 139.503 133.637 139.844 134.096C140.186 134.544 140.356 135.083 140.356 135.712C140.356 136.309 140.196 136.827 139.876 137.264C139.556 137.691 139.092 138.021 138.484 138.256C137.876 138.48 137.146 138.592 136.292 138.592ZM136.292 137.568C137.071 137.568 137.679 137.408 138.116 137.088C138.564 136.768 138.788 136.331 138.788 135.776C138.788 135.211 138.559 134.768 138.1 134.448C137.642 134.128 137.039 133.968 136.292 133.968C135.546 133.968 134.948 134.128 134.5 134.448C134.063 134.768 133.844 135.211 133.844 135.776C133.844 136.331 134.058 136.768 134.484 137.088C134.922 137.408 135.524 137.568 136.292 137.568ZM143.601 144L151.249 132.8H152.481L144.833 144H143.601ZM144.497 138.816C143.985 138.816 143.532 138.688 143.137 138.432C142.742 138.176 142.433 137.819 142.209 137.36C141.996 136.901 141.889 136.368 141.889 135.76C141.889 135.152 141.996 134.619 142.209 134.16C142.433 133.701 142.742 133.344 143.137 133.088C143.532 132.832 143.985 132.704 144.497 132.704C145.02 132.704 145.473 132.832 145.857 133.088C146.252 133.344 146.556 133.701 146.769 134.16C146.982 134.619 147.089 135.152 147.089 135.76C147.089 136.368 146.982 136.901 146.769 137.36C146.556 137.819 146.252 138.176 145.857 138.432C145.473 138.688 145.02 138.816 144.497 138.816ZM144.497 137.904C144.988 137.904 145.372 137.717 145.649 137.344C145.926 136.96 146.065 136.432 146.065 135.76C146.065 135.088 145.926 134.565 145.649 134.192C145.372 133.808 144.988 133.616 144.497 133.616C144.017 133.616 143.633 133.808 143.345 134.192C143.068 134.565 142.929 135.088 142.929 135.76C142.929 136.421 143.068 136.944 143.345 137.328C143.633 137.712 144.017 137.904 144.497 137.904ZM151.585 144.096C151.073 144.096 150.62 143.968 150.225 143.712C149.83 143.456 149.526 143.099 149.313 142.64C149.1 142.181 148.993 141.648 148.993 141.04C148.993 140.432 149.1 139.899 149.313 139.44C149.526 138.981 149.83 138.624 150.225 138.368C150.62 138.112 151.073 137.984 151.585 137.984C152.108 137.984 152.561 138.112 152.945 138.368C153.34 138.624 153.644 138.981 153.857 139.44C154.081 139.899 154.193 140.432 154.193 141.04C154.193 141.648 154.081 142.181 153.857 142.64C153.644 143.099 153.34 143.456 152.945 143.712C152.561 143.968 152.108 144.096 151.585 144.096ZM151.585 143.184C152.065 143.184 152.444 142.997 152.721 142.624C153.009 142.24 153.153 141.712 153.153 141.04C153.153 140.379 153.009 139.856 152.721 139.472C152.444 139.088 152.065 138.896 151.585 138.896C151.105 138.896 150.721 139.088 150.433 139.472C150.156 139.845 150.017 140.368 150.017 141.04C150.017 141.712 150.156 142.24 150.433 142.624C150.721 142.997 151.105 143.184 151.585 143.184Z" fill="#00AF43"/>
<path d="M172.333 140.667L167.174 134.834C167.152 134.81 167.125 134.79 167.095 134.777C167.065 134.763 167.033 134.756 167 134.756C166.967 134.756 166.935 134.763 166.905 134.777C166.875 134.79 166.848 134.81 166.827 134.834L161.667 140.667" stroke="#00AF43" stroke-width="2" stroke-linecap="round" stroke-linejoin="round"/>
</g>
<g filter="url(#filter2_d_10402_193851)">
<rect x="236" width="381" height="150" rx="16" fill="white"/>
<path d="M311.902 46.2737C306.22 44.7109 300.203 44.868 294.61 46.725C289.018 48.5821 284.102 52.0557 280.484 56.7067C276.866 61.3576 274.709 66.977 274.284 72.8542C273.86 78.7315 275.188 84.6025 278.1 89.725C281.012 94.8475 285.378 98.9914 290.646 101.633C295.913 104.274 301.846 105.294 307.693 104.563C313.54 103.833 319.039 101.385 323.495 97.5293C327.951 93.6735 331.163 88.5831 332.726 82.9016L316.321 78.3889C315.65 80.8257 314.272 83.0091 312.361 84.6628C310.45 86.3165 308.092 87.3664 305.584 87.6797C303.076 87.9929 300.532 87.5555 298.272 86.4227C296.013 85.2899 294.141 83.5126 292.891 81.3155C291.642 79.1185 291.073 76.6004 291.255 74.0796C291.437 71.5589 292.362 69.1487 293.914 67.1539C295.466 65.1591 297.574 63.6692 299.973 62.8728C302.371 62.0763 304.952 62.0089 307.389 62.6792L311.902 46.2737Z" fill="url(#paint2_linear_10402_193851)"/>
<path d="M339.749 79.2463C340.666 71.523 339.058 63.7103 335.164 56.9776C331.27 50.2448 325.301 44.9541 318.149 41.8972L310.069 60.8022C313.136 62.1133 315.696 64.3825 317.366 67.2702C319.036 70.1578 319.726 73.5087 319.333 76.8212L339.749 79.2463Z" fill="#FFB61F"/>
<path d="M363.9 54L370.2 40H372.76L379.08 54H376.36L370.94 41.38H371.98L366.58 54H363.9ZM366.8 50.76L367.5 48.72H375.06L375.76 50.76H366.8ZM385.423 54.14C384.303 54.14 383.303 53.9067 382.423 53.44C381.556 52.96 380.876 52.3067 380.383 51.48C379.889 50.6533 379.643 49.7133 379.643 48.66C379.643 47.5933 379.889 46.6533 380.383 45.84C380.876 45.0133 381.556 44.3667 382.423 43.9C383.303 43.4333 384.303 43.2 385.423 43.2C386.463 43.2 387.376 43.4133 388.163 43.84C388.963 44.2533 389.569 44.8667 389.983 45.68L388.063 46.8C387.743 46.2933 387.349 45.92 386.883 45.68C386.429 45.44 385.936 45.32 385.403 45.32C384.789 45.32 384.236 45.4533 383.743 45.72C383.249 45.9867 382.863 46.3733 382.583 46.88C382.303 47.3733 382.163 47.9667 382.163 48.66C382.163 49.3533 382.303 49.9533 382.583 50.46C382.863 50.9533 383.249 51.3333 383.743 51.6C384.236 51.8667 384.789 52 385.403 52C385.936 52 386.429 51.88 386.883 51.64C387.349 51.4 387.743 51.0267 388.063 50.52L389.983 51.64C389.569 52.44 388.963 53.06 388.163 53.5C387.376 53.9267 386.463 54.14 385.423 54.14ZM396.888 54.14C395.768 54.14 394.768 53.9067 393.888 53.44C393.021 52.96 392.341 52.3067 391.848 51.48C391.354 50.6533 391.108 49.7133 391.108 48.66C391.108 47.5933 391.354 46.6533 391.848 45.84C392.341 45.0133 393.021 44.3667 393.888 43.9C394.768 43.4333 395.768 43.2 396.888 43.2C397.928 43.2 398.841 43.4133 399.628 43.84C400.428 44.2533 401.034 44.8667 401.448 45.68L399.528 46.8C399.208 46.2933 398.814 45.92 398.348 45.68C397.894 45.44 397.401 45.32 396.868 45.32C396.254 45.32 395.701 45.4533 395.208 45.72C394.714 45.9867 394.328 46.3733 394.048 46.88C393.768 47.3733 393.628 47.9667 393.628 48.66C393.628 49.3533 393.768 49.9533 394.048 50.46C394.328 50.9533 394.714 51.3333 395.208 51.6C395.701 51.8667 396.254 52 396.868 52C397.401 52 397.894 51.88 398.348 51.64C398.814 51.4 399.208 51.0267 399.528 50.52L401.448 51.64C401.034 52.44 400.428 53.06 399.628 53.5C398.841 53.9267 397.928 54.14 396.888 54.14ZM408.253 54.14C407.159 54.14 406.186 53.9067 405.333 53.44C404.479 52.96 403.806 52.3067 403.313 51.48C402.819 50.6533 402.573 49.7133 402.573 48.66C402.573 47.5933 402.819 46.6533 403.313 45.84C403.806 45.0133 404.479 44.3667 405.333 43.9C406.186 43.4333 407.159 43.2 408.253 43.2C409.359 43.2 410.339 43.4333 411.193 43.9C412.059 44.3667 412.733 45.0067 413.213 45.82C413.706 46.6333 413.953 47.58 413.953 48.66C413.953 49.7133 413.706 50.6533 413.213 51.48C412.733 52.3067 412.059 52.96 411.193 53.44C410.339 53.9067 409.359 54.14 408.253 54.14ZM408.253 52C408.866 52 409.413 51.8667 409.893 51.6C410.373 51.3333 410.746 50.9467 411.013 50.44C411.293 49.9333 411.433 49.34 411.433 48.66C411.433 47.9667 411.293 47.3733 411.013 46.88C410.746 46.3733 410.373 45.9867 409.893 45.72C409.413 45.4533 408.873 45.32 408.273 45.32C407.659 45.32 407.113 45.4533 406.633 45.72C406.166 45.9867 405.793 46.3733 405.513 46.88C405.233 47.3733 405.093 47.9667 405.093 48.66C405.093 49.34 405.233 49.9333 405.513 50.44C405.793 50.9467 406.166 51.3333 406.633 51.6C407.113 51.8667 407.653 52 408.253 52ZM420.863 54.14C419.956 54.14 419.156 53.9733 418.463 53.64C417.77 53.2933 417.23 52.7733 416.843 52.08C416.456 51.3733 416.263 50.4867 416.263 49.42V43.32H418.763V49.08C418.763 50.04 418.976 50.76 419.403 51.24C419.843 51.7067 420.463 51.94 421.263 51.94C421.85 51.94 422.356 51.82 422.783 51.58C423.223 51.34 423.563 50.98 423.803 50.5C424.056 50.02 424.183 49.4267 424.183 48.72V43.32H426.683V54H424.303V51.12L424.723 52C424.363 52.6933 423.836 53.2267 423.143 53.6C422.45 53.96 421.69 54.14 420.863 54.14ZM436.016 43.2C436.87 43.2 437.63 43.3667 438.296 43.7C438.976 44.0333 439.51 44.5467 439.896 45.24C440.283 45.92 440.476 46.8 440.476 47.88V54H437.976V48.2C437.976 47.2533 437.75 46.5467 437.296 46.08C436.856 45.6133 436.236 45.38 435.436 45.38C434.85 45.38 434.33 45.5 433.876 45.74C433.423 45.98 433.07 46.34 432.816 46.82C432.576 47.2867 432.456 47.88 432.456 48.6V54H429.956V43.32H432.336V46.2L431.916 45.32C432.29 44.64 432.83 44.12 433.536 43.76C434.256 43.3867 435.083 43.2 436.016 43.2ZM447.668 54.14C446.494 54.14 445.588 53.84 444.948 53.24C444.308 52.6267 443.988 51.7267 443.988 50.54V40.96H446.488V50.48C446.488 50.9867 446.614 51.38 446.868 51.66C447.134 51.94 447.501 52.08 447.968 52.08C448.528 52.08 448.994 51.9333 449.368 51.64L450.068 53.42C449.774 53.66 449.414 53.84 448.988 53.96C448.561 54.08 448.121 54.14 447.668 54.14ZM442.228 45.4V43.4H449.348V45.4H442.228ZM457.892 54V40H464.452C466.132 40 467.412 40.3333 468.292 41C469.172 41.6533 469.612 42.5333 469.612 43.64C469.612 44.3867 469.438 45.0267 469.092 45.56C468.745 46.08 468.278 46.4867 467.692 46.78C467.118 47.06 466.492 47.2 465.812 47.2L466.172 46.48C466.958 46.48 467.665 46.6267 468.292 46.92C468.918 47.2 469.412 47.6133 469.772 48.16C470.145 48.7067 470.332 49.3867 470.332 50.2C470.332 51.4 469.872 52.3333 468.952 53C468.032 53.6667 466.665 54 464.852 54H457.892ZM460.492 51.96H464.692C465.665 51.96 466.412 51.8 466.932 51.48C467.452 51.16 467.712 50.6467 467.712 49.94C467.712 49.2467 467.452 48.74 466.932 48.42C466.412 48.0867 465.665 47.92 464.692 47.92H460.292V45.9H464.172C465.078 45.9 465.772 45.74 466.252 45.42C466.745 45.1 466.992 44.62 466.992 43.98C466.992 43.3267 466.745 42.84 466.252 42.52C465.772 42.2 465.078 42.04 464.172 42.04H460.492V51.96ZM479.447 54V51.84L479.307 51.38V47.6C479.307 46.8667 479.087 46.3 478.647 45.9C478.207 45.4867 477.54 45.28 476.647 45.28C476.047 45.28 475.453 45.3733 474.867 45.56C474.293 45.7467 473.807 46.0067 473.407 46.34L472.427 44.52C473 44.08 473.68 43.7533 474.467 43.54C475.267 43.3133 476.093 43.2 476.947 43.2C478.493 43.2 479.687 43.5733 480.527 44.32C481.38 45.0533 481.807 46.1933 481.807 47.74V54H479.447ZM476.087 54.14C475.287 54.14 474.587 54.0067 473.987 53.74C473.387 53.46 472.92 53.08 472.587 52.6C472.267 52.1067 472.107 51.5533 472.107 50.94C472.107 50.34 472.247 49.8 472.527 49.32C472.82 48.84 473.293 48.46 473.947 48.18C474.6 47.9 475.467 47.76 476.547 47.76H479.647V49.42H476.727C475.873 49.42 475.3 49.56 475.007 49.84C474.713 50.1067 474.567 50.44 474.567 50.84C474.567 51.2933 474.747 51.6533 475.107 51.92C475.467 52.1867 475.967 52.32 476.607 52.32C477.22 52.32 477.767 52.18 478.247 51.9C478.74 51.62 479.093 51.2067 479.307 50.66L479.727 52.16C479.487 52.7867 479.053 53.2733 478.427 53.62C477.813 53.9667 477.033 54.14 476.087 54.14ZM485.015 54V39.16H487.515V54H485.015ZM497.376 54V51.84L497.236 51.38V47.6C497.236 46.8667 497.016 46.3 496.576 45.9C496.136 45.4867 495.47 45.28 494.576 45.28C493.976 45.28 493.383 45.3733 492.796 45.56C492.223 45.7467 491.736 46.0067 491.336 46.34L490.356 44.52C490.93 44.08 491.61 43.7533 492.396 43.54C493.196 43.3133 494.023 43.2 494.876 43.2C496.423 43.2 497.616 43.5733 498.456 44.32C499.31 45.0533 499.736 46.1933 499.736 47.74V54H497.376ZM494.016 54.14C493.216 54.14 492.516 54.0067 491.916 53.74C491.316 53.46 490.85 53.08 490.516 52.6C490.196 52.1067 490.036 51.5533 490.036 50.94C490.036 50.34 490.176 49.8 490.456 49.32C490.75 48.84 491.223 48.46 491.876 48.18C492.53 47.9 493.396 47.76 494.476 47.76H497.576V49.42H494.656C493.803 49.42 493.23 49.56 492.936 49.84C492.643 50.1067 492.496 50.44 492.496 50.84C492.496 51.2933 492.676 51.6533 493.036 51.92C493.396 52.1867 493.896 52.32 494.536 52.32C495.15 52.32 495.696 52.18 496.176 51.9C496.67 51.62 497.023 51.2067 497.236 50.66L497.656 52.16C497.416 52.7867 496.983 53.2733 496.356 53.62C495.743 53.9667 494.963 54.14 494.016 54.14ZM509.005 43.2C509.858 43.2 510.618 43.3667 511.285 43.7C511.965 44.0333 512.498 44.5467 512.885 45.24C513.271 45.92 513.465 46.8 513.465 47.88V54H510.965V48.2C510.965 47.2533 510.738 46.5467 510.285 46.08C509.845 45.6133 509.225 45.38 508.425 45.38C507.838 45.38 507.318 45.5 506.865 45.74C506.411 45.98 506.058 46.34 505.805 46.82C505.565 47.2867 505.445 47.88 505.445 48.6V54H502.945V43.32H505.325V46.2L504.905 45.32C505.278 44.64 505.818 44.12 506.525 43.76C507.245 43.3867 508.071 43.2 509.005 43.2ZM521.556 54.14C520.436 54.14 519.436 53.9067 518.556 53.44C517.689 52.96 517.009 52.3067 516.516 51.48C516.022 50.6533 515.776 49.7133 515.776 48.66C515.776 47.5933 516.022 46.6533 516.516 45.84C517.009 45.0133 517.689 44.3667 518.556 43.9C519.436 43.4333 520.436 43.2 521.556 43.2C522.596 43.2 523.509 43.4133 524.296 43.84C525.096 44.2533 525.702 44.8667 526.116 45.68L524.196 46.8C523.876 46.2933 523.482 45.92 523.016 45.68C522.562 45.44 522.069 45.32 521.536 45.32C520.922 45.32 520.369 45.4533 519.876 45.72C519.382 45.9867 518.996 46.3733 518.716 46.88C518.436 47.3733 518.296 47.9667 518.296 48.66C518.296 49.3533 518.436 49.9533 518.716 50.46C518.996 50.9533 519.382 51.3333 519.876 51.6C520.369 51.8667 520.922 52 521.536 52C522.069 52 522.562 51.88 523.016 51.64C523.482 51.4 523.876 51.0267 524.196 50.52L526.116 51.64C525.702 52.44 525.096 53.06 524.296 53.5C523.509 53.9267 522.596 54.14 521.556 54.14ZM533.14 54.14C531.954 54.14 530.914 53.9067 530.02 53.44C529.14 52.96 528.454 52.3067 527.96 51.48C527.48 50.6533 527.24 49.7133 527.24 48.66C527.24 47.5933 527.474 46.6533 527.94 45.84C528.42 45.0133 529.074 44.3667 529.9 43.9C530.74 43.4333 531.694 43.2 532.76 43.2C533.8 43.2 534.727 43.4267 535.54 43.88C536.354 44.3333 536.994 44.9733 537.46 45.8C537.927 46.6267 538.16 47.6 538.16 48.72C538.16 48.8267 538.154 48.9467 538.14 49.08C538.14 49.2133 538.134 49.34 538.12 49.46H529.22V47.8H536.8L535.82 48.32C535.834 47.7067 535.707 47.1667 535.44 46.7C535.174 46.2333 534.807 45.8667 534.34 45.6C533.887 45.3333 533.36 45.2 532.76 45.2C532.147 45.2 531.607 45.3333 531.14 45.6C530.687 45.8667 530.327 46.24 530.06 46.72C529.807 47.1867 529.68 47.74 529.68 48.38V48.78C529.68 49.42 529.827 49.9867 530.12 50.48C530.414 50.9733 530.827 51.3533 531.36 51.62C531.894 51.8867 532.507 52.02 533.2 52.02C533.8 52.02 534.34 51.9267 534.82 51.74C535.3 51.5533 535.727 51.26 536.1 50.86L537.44 52.4C536.96 52.96 536.354 53.3933 535.62 53.7C534.9 53.9933 534.074 54.14 533.14 54.14Z" fill="#556987"/>
<path d="M366.7 97V83H368.84L377.6 93.78H376.54V83H379.12V97H376.98L368.2 86.22H369.28V97H366.7ZM364.6 92.08V90.68H367.7V92.08H364.6ZM364.6 89.32V87.92H367.7V89.32H364.6ZM378.22 92.08V90.68H381.22V92.08H378.22ZM378.22 89.32V87.92H381.22V89.32H378.22Z" fill="#2A3342"/>
<path d="M398.844 107.432C396.732 107.432 394.884 107.12 393.3 106.496C391.716 105.848 390.48 104.948 389.592 103.796C388.704 102.62 388.26 101.252 388.26 99.692C388.26 98.132 388.692 96.812 389.556 95.732C390.444 94.628 391.68 93.8 393.264 93.248C394.848 92.672 396.708 92.384 398.844 92.384C401.004 92.384 402.876 92.672 404.46 93.248C406.068 93.8 407.304 94.628 408.168 95.732C409.056 96.812 409.5 98.132 409.5 99.692C409.5 101.252 409.056 102.62 408.168 103.796C407.28 104.948 406.032 105.848 404.424 106.496C402.84 107.12 400.98 107.432 398.844 107.432ZM398.844 103.148C400.308 103.148 401.46 102.824 402.3 102.176C403.164 101.528 403.596 100.64 403.596 99.512C403.596 98.384 403.164 97.508 402.3 96.884C401.46 96.236 400.308 95.912 398.844 95.912C397.404 95.912 396.264 96.236 395.424 96.884C394.584 97.508 394.164 98.384 394.164 99.512C394.164 100.64 394.584 101.528 395.424 102.176C396.264 102.824 397.404 103.148 398.844 103.148ZM398.844 95.336C396.9 95.336 395.196 95.072 393.732 94.544C392.292 94.016 391.164 93.248 390.348 92.24C389.556 91.208 389.16 89.984 389.16 88.568C389.16 87.08 389.568 85.808 390.384 84.752C391.2 83.672 392.34 82.844 393.804 82.268C395.268 81.668 396.948 81.368 398.844 81.368C400.788 81.368 402.48 81.668 403.92 82.268C405.384 82.844 406.524 83.672 407.34 84.752C408.18 85.808 408.6 87.08 408.6 88.568C408.6 89.984 408.192 91.208 407.376 92.24C406.584 93.248 405.456 94.016 403.992 94.544C402.528 95.072 400.812 95.336 398.844 95.336ZM398.844 91.916C400.068 91.916 401.028 91.64 401.724 91.088C402.444 90.536 402.804 89.78 402.804 88.82C402.804 87.812 402.432 87.032 401.688 86.48C400.968 85.928 400.02 85.652 398.844 85.652C397.692 85.652 396.756 85.928 396.036 86.48C395.316 87.032 394.956 87.812 394.956 88.82C394.956 89.78 395.304 90.536 396 91.088C396.696 91.64 397.644 91.916 398.844 91.916ZM420.342 107.432C418.59 107.432 416.85 107.204 415.122 106.748C413.394 106.268 411.93 105.596 410.73 104.732L412.998 100.268C413.958 100.964 415.074 101.516 416.346 101.924C417.618 102.332 418.902 102.536 420.198 102.536C421.662 102.536 422.814 102.248 423.654 101.672C424.494 101.096 424.914 100.304 424.914 99.296C424.914 98.336 424.542 97.58 423.798 97.028C423.054 96.476 421.854 96.2 420.198 96.2H417.534V92.348L424.554 84.392L425.202 86.48H411.99V81.8H429.63V85.58L422.646 93.536L419.694 91.844H421.386C424.482 91.844 426.822 92.54 428.406 93.932C429.99 95.324 430.782 97.112 430.782 99.296C430.782 100.712 430.41 102.044 429.666 103.292C428.922 104.516 427.782 105.512 426.246 106.28C424.71 107.048 422.742 107.432 420.342 107.432ZM433.186 101.708V97.784L445.066 81.8H451.186L439.558 97.784L436.714 96.956H456.55V101.708H433.186ZM446.758 107V101.708L446.938 96.956V92.24H452.446V107H446.758ZM459.214 112.544L461.59 103.904L462.382 107.144C461.35 107.144 460.498 106.844 459.826 106.244C459.178 105.644 458.854 104.816 458.854 103.76C458.854 102.704 459.19 101.864 459.862 101.24C460.534 100.616 461.362 100.304 462.346 100.304C463.354 100.304 464.182 100.628 464.83 101.276C465.478 101.9 465.802 102.728 465.802 103.76C465.802 104.072 465.778 104.384 465.73 104.696C465.682 104.984 465.586 105.344 465.442 105.776C465.322 106.184 465.118 106.712 464.83 107.36L462.778 112.544H459.214ZM476.988 107.432C475.236 107.432 473.496 107.204 471.768 106.748C470.064 106.268 468.6 105.596 467.376 104.732L469.68 100.268C470.64 100.964 471.744 101.516 472.992 101.924C474.264 102.332 475.548 102.536 476.844 102.536C478.308 102.536 479.46 102.248 480.3 101.672C481.14 101.096 481.56 100.292 481.56 99.26C481.56 98.612 481.392 98.036 481.056 97.532C480.72 97.028 480.12 96.644 479.256 96.38C478.416 96.116 477.228 95.984 475.692 95.984H469.248L470.544 81.8H485.916V86.48H472.632L475.656 83.816L474.756 93.932L471.732 91.268H477.06C479.556 91.268 481.56 91.616 483.072 92.312C484.608 92.984 485.724 93.908 486.42 95.084C487.116 96.26 487.464 97.592 487.464 99.08C487.464 100.568 487.092 101.948 486.348 103.22C485.604 104.468 484.452 105.488 482.892 106.28C481.356 107.048 479.388 107.432 476.988 107.432ZM493.718 107V83.96L496.238 86.48H488.678V81.8H499.55V107H493.718ZM514.727 107.432C512.663 107.432 510.815 106.928 509.183 105.92C507.551 104.888 506.267 103.4 505.331 101.456C504.395 99.512 503.927 97.16 503.927 94.4C503.927 91.64 504.395 89.288 505.331 87.344C506.267 85.4 507.551 83.924 509.183 82.916C510.815 81.884 512.663 81.368 514.727 81.368C516.815 81.368 518.663 81.884 520.271 82.916C521.903 83.924 523.187 85.4 524.123 87.344C525.059 89.288 525.527 91.64 525.527 94.4C525.527 97.16 525.059 99.512 524.123 101.456C523.187 103.4 521.903 104.888 520.271 105.92C518.663 106.928 516.815 107.432 514.727 107.432ZM514.727 102.5C515.711 102.5 516.563 102.224 517.283 101.672C518.027 101.12 518.603 100.244 519.011 99.044C519.443 97.844 519.659 96.296 519.659 94.4C519.659 92.504 519.443 90.956 519.011 89.756C518.603 88.556 518.027 87.68 517.283 87.128C516.563 86.576 515.711 86.3 514.727 86.3C513.767 86.3 512.915 86.576 512.171 87.128C511.451 87.68 510.875 88.556 510.443 89.756C510.035 90.956 509.831 92.504 509.831 94.4C509.831 96.296 510.035 97.844 510.443 99.044C510.875 100.244 511.451 101.12 512.171 101.672C512.915 102.224 513.767 102.5 514.727 102.5ZM531.216 107.288C530.256 107.288 529.428 106.964 528.732 106.316C528.06 105.644 527.724 104.792 527.724 103.76C527.724 102.728 528.06 101.9 528.732 101.276C529.428 100.628 530.256 100.304 531.216 100.304C532.2 100.304 533.028 100.628 533.7 101.276C534.372 101.9 534.708 102.728 534.708 103.76C534.708 104.792 534.372 105.644 533.7 106.316C533.028 106.964 532.2 107.288 531.216 107.288ZM547.669 107.432C545.605 107.432 543.757 106.928 542.125 105.92C540.493 104.888 539.209 103.4 538.273 101.456C537.337 99.512 536.869 97.16 536.869 94.4C536.869 91.64 537.337 89.288 538.273 87.344C539.209 85.4 540.493 83.924 542.125 82.916C543.757 81.884 545.605 81.368 547.669 81.368C549.757 81.368 551.605 81.884 553.213 82.916C554.845 83.924 556.129 85.4 557.065 87.344C558.001 89.288 558.469 91.64 558.469 94.4C558.469 97.16 558.001 99.512 557.065 101.456C556.129 103.4 554.845 104.888 553.213 105.92C551.605 106.928 549.757 107.432 547.669 107.432ZM547.669 102.5C548.653 102.5 549.505 102.224 550.225 101.672C550.969 101.12 551.545 100.244 551.953 99.044C552.385 97.844 552.601 96.296 552.601 94.4C552.601 92.504 552.385 90.956 551.953 89.756C551.545 88.556 550.969 87.68 550.225 87.128C549.505 86.576 548.653 86.3 547.669 86.3C546.709 86.3 545.857 86.576 545.113 87.128C544.393 87.68 543.817 88.556 543.385 89.756C542.977 90.956 542.773 92.504 542.773 94.4C542.773 96.296 542.977 97.844 543.385 99.044C543.817 100.244 544.393 101.12 545.113 101.672C545.857 102.224 546.709 102.5 547.669 102.5ZM572.102 107.432C570.038 107.432 568.19 106.928 566.558 105.92C564.926 104.888 563.642 103.4 562.706 101.456C561.77 99.512 561.302 97.16 561.302 94.4C561.302 91.64 561.77 89.288 562.706 87.344C563.642 85.4 564.926 83.924 566.558 82.916C568.19 81.884 570.038 81.368 572.102 81.368C574.19 81.368 576.038 81.884 577.646 82.916C579.278 83.924 580.562 85.4 581.498 87.344C582.434 89.288 582.902 91.64 582.902 94.4C582.902 97.16 582.434 99.512 581.498 101.456C580.562 103.4 579.278 104.888 577.646 105.92C576.038 106.928 574.19 107.432 572.102 107.432ZM572.102 102.5C573.086 102.5 573.938 102.224 574.658 101.672C575.402 101.12 575.978 100.244 576.386 99.044C576.818 97.844 577.034 96.296 577.034 94.4C577.034 92.504 576.818 90.956 576.386 89.756C575.978 88.556 575.402 87.68 574.658 87.128C573.938 86.576 573.086 86.3 572.102 86.3C571.142 86.3 570.29 86.576 569.546 87.128C568.826 87.68 568.25 88.556 567.818 89.756C567.41 90.956 567.206 92.504 567.206 94.4C567.206 96.296 567.41 97.844 567.818 99.044C568.25 100.244 568.826 101.12 569.546 101.672C570.29 102.224 571.142 102.5 572.102 102.5Z" fill="#2A3342"/>
</g>
<path d="M474.98 423L481.32 409H483.3L489.66 423H487.56L481.9 410.12H482.7L477.04 423H474.98ZM477.68 419.5L478.22 417.9H486.1L486.68 419.5H477.68ZM504.728 412.3C505.582 412.3 506.335 412.467 506.988 412.8C507.642 413.133 508.148 413.64 508.508 414.32C508.882 415 509.068 415.86 509.068 416.9V423H507.148V417.12C507.148 416.093 506.908 415.32 506.428 414.8C505.948 414.28 505.275 414.02 504.408 414.02C503.768 414.02 503.208 414.153 502.728 414.42C502.248 414.687 501.875 415.08 501.608 415.6C501.355 416.12 501.228 416.767 501.228 417.54V423H499.308V417.12C499.308 416.093 499.068 415.32 498.588 414.8C498.122 414.28 497.448 414.02 496.568 414.02C495.942 414.02 495.388 414.153 494.908 414.42C494.428 414.687 494.055 415.08 493.788 415.6C493.522 416.12 493.388 416.767 493.388 417.54V423H491.468V412.4H493.308V415.22L493.008 414.5C493.342 413.807 493.855 413.267 494.548 412.88C495.242 412.493 496.048 412.3 496.968 412.3C497.982 412.3 498.855 412.553 499.588 413.06C500.322 413.553 500.802 414.307 501.028 415.32L500.248 415C500.568 414.187 501.128 413.533 501.928 413.04C502.728 412.547 503.662 412.3 504.728 412.3ZM517.141 423.12C516.075 423.12 515.128 422.887 514.301 422.42C513.475 421.953 512.821 421.313 512.341 420.5C511.861 419.673 511.621 418.74 511.621 417.7C511.621 416.647 511.861 415.713 512.341 414.9C512.821 414.087 513.475 413.453 514.301 413C515.128 412.533 516.075 412.3 517.141 412.3C518.195 412.3 519.135 412.533 519.961 413C520.801 413.453 521.455 414.087 521.921 414.9C522.401 415.7 522.641 416.633 522.641 417.7C522.641 418.753 522.401 419.687 521.921 420.5C521.455 421.313 520.801 421.953 519.961 422.42C519.135 422.887 518.195 423.12 517.141 423.12ZM517.141 421.44C517.821 421.44 518.428 421.287 518.961 420.98C519.508 420.673 519.935 420.24 520.241 419.68C520.548 419.107 520.701 418.447 520.701 417.7C520.701 416.94 520.548 416.287 520.241 415.74C519.935 415.18 519.508 414.747 518.961 414.44C518.428 414.133 517.821 413.98 517.141 413.98C516.461 413.98 515.855 414.133 515.321 414.44C514.788 414.747 514.361 415.18 514.041 415.74C513.721 416.287 513.561 416.94 513.561 417.7C513.561 418.447 513.721 419.107 514.041 419.68C514.361 420.24 514.788 420.673 515.321 420.98C515.855 421.287 516.461 421.44 517.141 421.44ZM529.757 423.12C528.85 423.12 528.05 422.953 527.357 422.62C526.677 422.287 526.143 421.78 525.757 421.1C525.383 420.407 525.197 419.54 525.197 418.5V412.4H527.117V418.28C527.117 419.32 527.363 420.1 527.857 420.62C528.363 421.14 529.07 421.4 529.977 421.4C530.643 421.4 531.223 421.267 531.717 421C532.21 420.72 532.59 420.32 532.857 419.8C533.123 419.267 533.257 418.627 533.257 417.88V412.4H535.177V423H533.357V420.14L533.657 420.9C533.31 421.607 532.79 422.153 532.097 422.54C531.403 422.927 530.623 423.12 529.757 423.12ZM544.492 412.3C545.358 412.3 546.118 412.467 546.772 412.8C547.438 413.133 547.958 413.64 548.332 414.32C548.705 415 548.892 415.86 548.892 416.9V423H546.972V417.12C546.972 416.093 546.718 415.32 546.212 414.8C545.718 414.28 545.018 414.02 544.112 414.02C543.432 414.02 542.838 414.153 542.332 414.42C541.825 414.687 541.432 415.08 541.152 415.6C540.885 416.12 540.752 416.767 540.752 417.54V423H538.832V412.4H540.672V415.26L540.372 414.5C540.718 413.807 541.252 413.267 541.972 412.88C542.692 412.493 543.532 412.3 544.492 412.3ZM556.085 423.12C555.018 423.12 554.192 422.833 553.605 422.26C553.018 421.687 552.725 420.867 552.725 419.8V410.08H554.645V419.72C554.645 420.293 554.785 420.733 555.065 421.04C555.358 421.347 555.772 421.5 556.305 421.5C556.905 421.5 557.405 421.333 557.805 421L558.405 422.38C558.112 422.633 557.758 422.82 557.345 422.94C556.945 423.06 556.525 423.12 556.085 423.12ZM550.925 413.98V412.4H557.685V413.98H550.925ZM566.377 423V409H571.837C573.064 409 574.111 409.193 574.977 409.58C575.844 409.967 576.511 410.527 576.977 411.26C577.444 411.993 577.677 412.867 577.677 413.88C577.677 414.893 577.444 415.767 576.977 416.5C576.511 417.22 575.844 417.78 574.977 418.18C574.111 418.567 573.064 418.76 571.837 418.76H567.477L568.377 417.82V423H566.377ZM568.377 418.02L567.477 417.02H571.777C573.057 417.02 574.024 416.747 574.677 416.2C575.344 415.653 575.677 414.88 575.677 413.88C575.677 412.88 575.344 412.107 574.677 411.56C574.024 411.013 573.057 410.74 571.777 410.74H567.477L568.377 409.74V418.02ZM586.818 423V420.76L586.718 420.34V416.52C586.718 415.707 586.478 415.08 585.998 414.64C585.531 414.187 584.825 413.96 583.878 413.96C583.251 413.96 582.638 414.067 582.038 414.28C581.438 414.48 580.931 414.753 580.518 415.1L579.718 413.66C580.265 413.22 580.918 412.887 581.678 412.66C582.451 412.42 583.258 412.3 584.098 412.3C585.551 412.3 586.671 412.653 587.458 413.36C588.245 414.067 588.638 415.147 588.638 416.6V423H586.818ZM583.338 423.12C582.551 423.12 581.858 422.987 581.258 422.72C580.671 422.453 580.218 422.087 579.898 421.62C579.578 421.14 579.418 420.6 579.418 420C579.418 419.427 579.551 418.907 579.818 418.44C580.098 417.973 580.545 417.6 581.158 417.32C581.785 417.04 582.625 416.9 583.678 416.9H587.038V418.28H583.758C582.798 418.28 582.151 418.44 581.818 418.76C581.485 419.08 581.318 419.467 581.318 419.92C581.318 420.44 581.525 420.86 581.938 421.18C582.351 421.487 582.925 421.64 583.658 421.64C584.378 421.64 585.005 421.48 585.538 421.16C586.085 420.84 586.478 420.373 586.718 419.76L587.098 421.08C586.845 421.707 586.398 422.207 585.758 422.58C585.118 422.94 584.311 423.12 583.338 423.12ZM592.456 427C591.949 427 591.456 426.913 590.976 426.74C590.496 426.58 590.082 426.34 589.736 426.02L590.556 424.58C590.822 424.833 591.116 425.027 591.436 425.16C591.756 425.293 592.096 425.36 592.456 425.36C592.922 425.36 593.309 425.24 593.616 425C593.922 424.76 594.209 424.333 594.476 423.72L595.136 422.26L595.336 422.02L599.496 412.4H601.376L596.236 424.06C595.929 424.807 595.582 425.393 595.196 425.82C594.822 426.247 594.409 426.547 593.956 426.72C593.502 426.907 593.002 427 592.456 427ZM594.976 423.34L590.136 412.4H592.136L596.256 421.84L594.976 423.34ZM609.416 423V420.76L609.316 420.34V416.52C609.316 415.707 609.076 415.08 608.596 414.64C608.129 414.187 607.422 413.96 606.476 413.96C605.849 413.96 605.236 414.067 604.636 414.28C604.036 414.48 603.529 414.753 603.116 415.1L602.316 413.66C602.862 413.22 603.516 412.887 604.276 412.66C605.049 412.42 605.856 412.3 606.696 412.3C608.149 412.3 609.269 412.653 610.056 413.36C610.842 414.067 611.236 415.147 611.236 416.6V423H609.416ZM605.936 423.12C605.149 423.12 604.456 422.987 603.856 422.72C603.269 422.453 602.816 422.087 602.496 421.62C602.176 421.14 602.016 420.6 602.016 420C602.016 419.427 602.149 418.907 602.416 418.44C602.696 417.973 603.142 417.6 603.756 417.32C604.382 417.04 605.222 416.9 606.276 416.9H609.636V418.28H606.356C605.396 418.28 604.749 418.44 604.416 418.76C604.082 419.08 603.916 419.467 603.916 419.92C603.916 420.44 604.122 420.86 604.536 421.18C604.949 421.487 605.522 421.64 606.256 421.64C606.976 421.64 607.602 421.48 608.136 421.16C608.682 420.84 609.076 420.373 609.316 419.76L609.696 421.08C609.442 421.707 608.996 422.207 608.356 422.58C607.716 422.94 606.909 423.12 605.936 423.12ZM620.409 423.12C619.502 423.12 618.682 422.92 617.949 422.52C617.229 422.107 616.655 421.5 616.229 420.7C615.815 419.9 615.609 418.9 615.609 417.7C615.609 416.5 615.822 415.5 616.249 414.7C616.689 413.9 617.269 413.3 617.989 412.9C618.722 412.5 619.529 412.3 620.409 412.3C621.449 412.3 622.369 412.527 623.169 412.98C623.969 413.433 624.602 414.067 625.069 414.88C625.535 415.68 625.769 416.62 625.769 417.7C625.769 418.78 625.535 419.727 625.069 420.54C624.602 421.353 623.969 421.987 623.169 422.44C622.369 422.893 621.449 423.12 620.409 423.12ZM614.789 423V408.16H616.709V415.22L616.509 417.68L616.629 420.14V423H614.789ZM620.249 421.44C620.929 421.44 621.535 421.287 622.069 420.98C622.615 420.673 623.042 420.24 623.349 419.68C623.669 419.107 623.829 418.447 623.829 417.7C623.829 416.94 623.669 416.287 623.349 415.74C623.042 415.18 622.615 414.747 622.069 414.44C621.535 414.133 620.929 413.98 620.249 413.98C619.582 413.98 618.975 414.133 618.429 414.44C617.895 414.747 617.469 415.18 617.149 415.74C616.842 416.287 616.689 416.94 616.689 417.7C616.689 418.447 616.842 419.107 617.149 419.68C617.469 420.24 617.895 420.673 618.429 420.98C618.975 421.287 619.582 421.44 620.249 421.44ZM628.422 423V408.16H630.342V423H628.422ZM638.728 423.12C637.594 423.12 636.594 422.887 635.728 422.42C634.874 421.953 634.208 421.313 633.728 420.5C633.261 419.687 633.028 418.753 633.028 417.7C633.028 416.647 633.254 415.713 633.708 414.9C634.174 414.087 634.808 413.453 635.608 413C636.421 412.533 637.334 412.3 638.348 412.3C639.374 412.3 640.281 412.527 641.068 412.98C641.854 413.433 642.468 414.073 642.908 414.9C643.361 415.713 643.588 416.667 643.588 417.76C643.588 417.84 643.581 417.933 643.568 418.04C643.568 418.147 643.561 418.247 643.548 418.34H634.528V416.96H642.548L641.768 417.44C641.781 416.76 641.641 416.153 641.348 415.62C641.054 415.087 640.648 414.673 640.128 414.38C639.621 414.073 639.028 413.92 638.348 413.92C637.681 413.92 637.088 414.073 636.568 414.38C636.048 414.673 635.641 415.093 635.348 415.64C635.054 416.173 634.908 416.787 634.908 417.48V417.8C634.908 418.507 635.068 419.14 635.388 419.7C635.721 420.247 636.181 420.673 636.768 420.98C637.354 421.287 638.028 421.44 638.788 421.44C639.414 421.44 639.981 421.333 640.488 421.12C641.008 420.907 641.461 420.587 641.848 420.16L642.908 421.4C642.428 421.96 641.828 422.387 641.108 422.68C640.401 422.973 639.608 423.12 638.728 423.12Z" fill="#556987"/>
<path d="M477.7 469V455H479.84L488.6 465.78H487.54V455H490.12V469H487.98L479.2 458.22H480.28V469H477.7ZM475.6 464.08V462.68H478.7V464.08H475.6ZM475.6 461.32V459.92H478.7V461.32H475.6ZM489.22 464.08V462.68H492.22V464.08H489.22ZM489.22 461.32V459.92H492.22V461.32H489.22Z" fill="#2A3342"/>
<path d="M505.992 478V457.2L507.816 459.088H501.256V455.6H510.152V478H505.992ZM514.756 482.832L516.612 475.76L517.156 478.128C516.409 478.128 515.78 477.904 515.268 477.456C514.777 476.987 514.532 476.357 514.532 475.568C514.532 474.757 514.777 474.117 515.268 473.648C515.78 473.157 516.398 472.912 517.124 472.912C517.87 472.912 518.489 473.157 518.98 473.648C519.47 474.139 519.716 474.779 519.716 475.568C519.716 475.781 519.694 476.016 519.652 476.272C519.609 476.507 519.534 476.784 519.428 477.104C519.342 477.424 519.193 477.829 518.98 478.32L517.348 482.832H514.756ZM522.433 478V475.216L531.329 466.768C532.075 466.064 532.63 465.445 532.993 464.912C533.355 464.379 533.59 463.888 533.697 463.44C533.825 462.971 533.889 462.533 533.889 462.128C533.889 461.104 533.537 460.315 532.833 459.76C532.129 459.184 531.094 458.896 529.729 458.896C528.641 458.896 527.649 459.088 526.753 459.472C525.878 459.856 525.121 460.443 524.481 461.232L521.569 458.992C522.443 457.819 523.617 456.912 525.089 456.272C526.582 455.611 528.246 455.28 530.081 455.28C531.702 455.28 533.11 455.547 534.305 456.08C535.521 456.592 536.449 457.328 537.089 458.288C537.75 459.248 538.081 460.389 538.081 461.712C538.081 462.437 537.985 463.163 537.793 463.888C537.601 464.592 537.238 465.339 536.705 466.128C536.171 466.917 535.393 467.803 534.369 468.784L526.721 476.048L525.857 474.48H538.944V478H522.433ZM548.898 455.28C550.946 455.28 552.684 455.717 554.114 456.592C555.564 457.445 556.674 458.693 557.442 460.336C558.21 461.979 558.594 464.005 558.594 466.416C558.594 468.976 558.124 471.141 557.186 472.912C556.268 474.683 554.988 476.027 553.346 476.944C551.703 477.861 549.794 478.32 547.618 478.32C546.487 478.32 545.41 478.203 544.386 477.968C543.362 477.733 542.476 477.371 541.73 476.88L543.266 473.744C543.884 474.149 544.556 474.437 545.282 474.608C546.007 474.757 546.754 474.832 547.522 474.832C549.634 474.832 551.308 474.181 552.546 472.88C553.783 471.579 554.402 469.659 554.402 467.12C554.402 466.715 554.391 466.245 554.37 465.712C554.348 465.157 554.274 464.603 554.146 464.048L555.426 465.456C555.063 466.331 554.54 467.067 553.858 467.664C553.175 468.24 552.375 468.677 551.458 468.976C550.54 469.275 549.527 469.424 548.418 469.424C546.967 469.424 545.655 469.147 544.482 468.592C543.33 468.016 542.412 467.216 541.73 466.192C541.047 465.147 540.706 463.931 540.706 462.544C540.706 461.051 541.068 459.771 541.794 458.704C542.519 457.616 543.5 456.773 544.738 456.176C545.996 455.579 547.383 455.28 548.898 455.28ZM549.122 458.544C548.268 458.544 547.511 458.704 546.85 459.024C546.188 459.323 545.666 459.76 545.282 460.336C544.919 460.891 544.738 461.563 544.738 462.352C544.738 463.525 545.143 464.453 545.954 465.136C546.764 465.819 547.852 466.16 549.218 466.16C550.114 466.16 550.903 466 551.586 465.68C552.268 465.339 552.802 464.88 553.186 464.304C553.57 463.707 553.762 463.045 553.762 462.32C553.762 461.616 553.58 460.987 553.218 460.432C552.855 459.856 552.332 459.397 551.65 459.056C550.967 458.715 550.124 458.544 549.122 458.544ZM570.4 478.32C568.544 478.32 566.933 478.043 565.568 477.488C564.203 476.933 563.147 476.155 562.4 475.152C561.653 474.128 561.28 472.933 561.28 471.568C561.28 470.203 561.643 469.051 562.368 468.112C563.093 467.173 564.139 466.459 565.504 465.968C566.869 465.477 568.501 465.232 570.4 465.232C572.299 465.232 573.931 465.477 575.296 465.968C576.683 466.459 577.739 467.184 578.464 468.144C579.211 469.083 579.584 470.224 579.584 471.568C579.584 472.933 579.2 474.128 578.432 475.152C577.685 476.155 576.619 476.933 575.232 477.488C573.867 478.043 572.256 478.32 570.4 478.32ZM570.4 475.056C571.936 475.056 573.152 474.736 574.048 474.096C574.944 473.456 575.392 472.571 575.392 471.44C575.392 470.331 574.944 469.456 574.048 468.816C573.152 468.176 571.936 467.856 570.4 467.856C568.864 467.856 567.659 468.176 566.784 468.816C565.909 469.456 565.472 470.331 565.472 471.44C565.472 472.571 565.909 473.456 566.784 474.096C567.659 474.736 568.864 475.056 570.4 475.056ZM570.4 467.408C568.672 467.408 567.189 467.184 565.952 466.736C564.715 466.267 563.755 465.595 563.072 464.72C562.411 463.824 562.08 462.757 562.08 461.52C562.08 460.24 562.421 459.141 563.104 458.224C563.808 457.285 564.789 456.56 566.048 456.048C567.307 455.536 568.757 455.28 570.4 455.28C572.064 455.28 573.525 455.536 574.784 456.048C576.043 456.56 577.024 457.285 577.728 458.224C578.432 459.141 578.784 460.24 578.784 461.52C578.784 462.757 578.443 463.824 577.76 464.72C577.099 465.595 576.139 466.267 574.88 466.736C573.621 467.184 572.128 467.408 570.4 467.408ZM570.4 464.848C571.723 464.848 572.768 464.571 573.536 464.016C574.304 463.44 574.688 462.672 574.688 461.712C574.688 460.709 574.293 459.931 573.504 459.376C572.715 458.821 571.68 458.544 570.4 458.544C569.12 458.544 568.096 458.821 567.328 459.376C566.56 459.931 566.176 460.709 566.176 461.712C566.176 462.672 566.549 463.44 567.296 464.016C568.064 464.571 569.099 464.848 570.4 464.848ZM582.756 482.832L584.612 475.76L585.156 478.128C584.409 478.128 583.78 477.904 583.268 477.456C582.777 476.987 582.532 476.357 582.532 475.568C582.532 474.757 582.777 474.117 583.268 473.648C583.78 473.157 584.398 472.912 585.124 472.912C585.87 472.912 586.489 473.157 586.98 473.648C587.47 474.139 587.716 474.779 587.716 475.568C587.716 475.781 587.694 476.016 587.652 476.272C587.609 476.507 587.534 476.784 587.428 477.104C587.342 477.424 587.193 477.829 586.98 478.32L585.348 482.832H582.756ZM599.713 478.32C597.857 478.32 596.246 478.043 594.881 477.488C593.515 476.933 592.459 476.155 591.713 475.152C590.966 474.128 590.593 472.933 590.593 471.568C590.593 470.203 590.955 469.051 591.681 468.112C592.406 467.173 593.451 466.459 594.817 465.968C596.182 465.477 597.814 465.232 599.713 465.232C601.611 465.232 603.243 465.477 604.609 465.968C605.995 466.459 607.051 467.184 607.777 468.144C608.523 469.083 608.897 470.224 608.897 471.568C608.897 472.933 608.513 474.128 607.745 475.152C606.998 476.155 605.931 476.933 604.545 477.488C603.179 478.043 601.569 478.32 599.713 478.32ZM599.713 475.056C601.249 475.056 602.465 474.736 603.361 474.096C604.257 473.456 604.705 472.571 604.705 471.44C604.705 470.331 604.257 469.456 603.361 468.816C602.465 468.176 601.249 467.856 599.713 467.856C598.177 467.856 596.971 468.176 596.097 468.816C595.222 469.456 594.785 470.331 594.785 471.44C594.785 472.571 595.222 473.456 596.097 474.096C596.971 474.736 598.177 475.056 599.713 475.056ZM599.713 467.408C597.985 467.408 596.502 467.184 595.265 466.736C594.027 466.267 593.067 465.595 592.385 464.72C591.723 463.824 591.393 462.757 591.393 461.52C591.393 460.24 591.734 459.141 592.417 458.224C593.121 457.285 594.102 456.56 595.361 456.048C596.619 455.536 598.07 455.28 599.713 455.28C601.377 455.28 602.838 455.536 604.097 456.048C605.355 456.56 606.337 457.285 607.041 458.224C607.745 459.141 608.097 460.24 608.097 461.52C608.097 462.757 607.755 463.824 607.073 464.72C606.411 465.595 605.451 466.267 604.193 466.736C602.934 467.184 601.441 467.408 599.713 467.408ZM599.713 464.848C601.035 464.848 602.081 464.571 602.849 464.016C603.617 463.44 604.001 462.672 604.001 461.712C604.001 460.709 603.606 459.931 602.817 459.376C602.027 458.821 600.993 458.544 599.713 458.544C598.433 458.544 597.409 458.821 596.641 459.376C595.873 459.931 595.489 460.709 595.489 461.712C595.489 462.672 595.862 463.44 596.609 464.016C597.377 464.571 598.411 464.848 599.713 464.848ZM618.635 478.32C617.057 478.32 615.51 478.096 613.996 477.648C612.502 477.179 611.244 476.539 610.22 475.728L612.012 472.496C612.822 473.157 613.804 473.691 614.956 474.096C616.108 474.501 617.313 474.704 618.572 474.704C620.065 474.704 621.228 474.405 622.06 473.808C622.892 473.189 623.308 472.357 623.308 471.312C623.308 470.288 622.924 469.477 622.156 468.88C621.388 468.283 620.15 467.984 618.444 467.984H616.396V465.136L622.796 457.52L623.34 459.088H611.308V455.6H626.572V458.384L620.172 466L617.996 464.72H619.244C621.996 464.72 624.054 465.339 625.42 466.576C626.806 467.792 627.5 469.36 627.5 471.28C627.5 472.539 627.18 473.701 626.54 474.768C625.9 475.835 624.918 476.699 623.596 477.36C622.294 478 620.641 478.32 618.635 478.32ZM629.901 472.912V470.032L640.941 455.6H645.389L634.509 470.032L632.429 469.392H650.189V472.912H629.901ZM642.189 478V472.912L642.317 469.392V464.88H646.221V478H642.189ZM655.06 478.224C654.335 478.224 653.716 477.979 653.204 477.488C652.692 476.976 652.436 476.336 652.436 475.568C652.436 474.757 652.692 474.117 653.204 473.648C653.716 473.157 654.335 472.912 655.06 472.912C655.786 472.912 656.404 473.157 656.916 473.648C657.428 474.117 657.684 474.757 657.684 475.568C657.684 476.336 657.428 476.976 656.916 477.488C656.404 477.979 655.786 478.224 655.06 478.224ZM669.346 478.32C667.575 478.32 665.975 477.872 664.546 476.976C663.138 476.08 662.028 474.779 661.218 473.072C660.407 471.344 660.002 469.253 660.002 466.8C660.002 464.347 660.407 462.267 661.218 460.56C662.028 458.832 663.138 457.52 664.546 456.624C665.975 455.728 667.575 455.28 669.346 455.28C671.138 455.28 672.738 455.728 674.146 456.624C675.554 457.52 676.663 458.832 677.474 460.56C678.306 462.267 678.722 464.347 678.722 466.8C678.722 469.253 678.306 471.344 677.474 473.072C676.663 474.779 675.554 476.08 674.146 476.976C672.738 477.872 671.138 478.32 669.346 478.32ZM669.346 474.704C670.391 474.704 671.298 474.427 672.066 473.872C672.834 473.296 673.431 472.421 673.858 471.248C674.306 470.075 674.53 468.592 674.53 466.8C674.53 464.987 674.306 463.504 673.858 462.352C673.431 461.179 672.834 460.315 672.066 459.76C671.298 459.184 670.391 458.896 669.346 458.896C668.343 458.896 667.447 459.184 666.658 459.76C665.89 460.315 665.282 461.179 664.834 462.352C664.407 463.504 664.194 464.987 664.194 466.8C664.194 468.592 664.407 470.075 664.834 471.248C665.282 472.421 665.89 473.296 666.658 473.872C667.447 474.427 668.343 474.704 669.346 474.704ZM690.877 478.32C689.106 478.32 687.506 477.872 686.077 476.976C684.669 476.08 683.56 474.779 682.749 473.072C681.938 471.344 681.533 469.253 681.533 466.8C681.533 464.347 681.938 462.267 682.749 460.56C683.56 458.832 684.669 457.52 686.077 456.624C687.506 455.728 689.106 455.28 690.877 455.28C692.669 455.28 694.269 455.728 695.677 456.624C697.085 457.52 698.194 458.832 699.005 460.56C699.837 462.267 700.253 464.347 700.253 466.8C700.253 469.253 699.837 471.344 699.005 473.072C698.194 474.779 697.085 476.08 695.677 476.976C694.269 477.872 692.669 478.32 690.877 478.32ZM690.877 474.704C691.922 474.704 692.829 474.427 693.597 473.872C694.365 473.296 694.962 472.421 695.389 471.248C695.837 470.075 696.061 468.592 696.061 466.8C696.061 464.987 695.837 463.504 695.389 462.352C694.962 461.179 694.365 460.315 693.597 459.76C692.829 459.184 691.922 458.896 690.877 458.896C689.874 458.896 688.978 459.184 688.189 459.76C687.421 460.315 686.813 461.179 686.365 462.352C685.938 463.504 685.725 464.987 685.725 466.8C685.725 468.592 685.938 470.075 686.365 471.248C686.813 472.421 687.421 473.296 688.189 473.872C688.978 474.427 689.874 474.704 690.877 474.704Z" fill="#2A3342"/>
<g filter="url(#filter3_d_10402_193851)">
<rect x="475" y="513" width="236" height="8" rx="4" fill="#F0F2F0"/>
<rect x="475" y="513" width="175" height="8" rx="4" fill="#9747FF"/>
<g filter="url(#filter4_d_10402_193851)">
<circle cx="652" cy="517" r="8" fill="#9747FF"/>
<circle cx="652" cy="517" r="9.5" stroke="white" stroke-width="3"/>
</g>
</g>
<path d="M503 200C503 195.582 506.582 192 511 192C515.418 192 519 195.582 519 200V359H503V200Z" fill="#F0F2F0"/>
<path d="M503 289C503 284.582 506.582 281 511 281C515.418 281 519 284.582 519 289V359H503V289Z" fill="#F5B47A"/>
<path d="M535 200C535 195.582 538.582 192 543 192C547.418 192 551 195.582 551 200V359H535V200Z" fill="#F0F2F0"/>
<path d="M535 254C535 249.582 538.582 246 543 246C547.418 246 551 249.582 551 254V359H535V254Z" fill="#F5B47A"/>
<path d="M567 200C567 195.582 570.582 192 575 192C579.418 192 583 195.582 583 200V359H567V200Z" fill="#F0F2F0"/>
<path d="M567 313C567 308.582 570.582 305 575 305C579.418 305 583 308.582 583 313V359H567V313Z" fill="#F5B47A"/>
<path d="M599 200C599 195.582 602.582 192 607 192C611.418 192 615 195.582 615 200V359H599V200Z" fill="#F0F2F0"/>
<path d="M599 255C599 250.582 602.582 247 607 247C611.418 247 615 250.582 615 255V359H599V255Z" fill="#F5B47A"/>
<path d="M631 162C631 157.582 634.582 154 639 154C643.418 154 647 157.582 647 162V359H631V162Z" fill="#F0F2F0"/>
<path d="M631 234C631 229.582 634.582 226 639 226C643.418 226 647 229.582 647 234V359H631V234Z" fill="#F5B47A"/>
<path d="M663 142C663 137.582 666.582 134 671 134C675.418 134 679 137.582 679 142V359H663V142Z" fill="#F0F2F0"/>
<path d="M663 200C663 195.582 666.582 192 671 192C675.418 192 679 195.582 679 200V359H663V200Z" fill="#F5B47A"/>
<path d="M695 169C695 164.582 698.582 161 703 161C707.418 161 711 164.582 711 169V359H695V169Z" fill="#F0F2F0"/>
<path d="M695 256C695 251.582 698.582 248 703 248C707.418 248 711 251.582 711 256V359H695V256Z" fill="#F5B47A"/>
<path d="M727 184C727 179.582 730.582 176 735 176C739.418 176 743 179.582 743 184V359H727V184Z" fill="#F0F2F0"/>
<path d="M727 293C727 288.582 730.582 285 735 285C739.418 285 743 288.582 743 293V359H727V293Z" fill="#F5B47A"/>
<path d="M759 169C759 164.582 762.582 161 767 161C771.418 161 775 164.582 775 169V359H759V169Z" fill="#F0F2F0"/>
<path d="M759 247C759 242.582 762.582 239 767 239C771.418 239 775 242.582 775 247V359H759V247Z" fill="#F5B47A"/>
<path d="M791 144C791 139.582 794.582 136 799 136C803.418 136 807 139.582 807 144V359H791V144Z" fill="#F0F2F0"/>
<path d="M791 208C791 203.582 794.582 200 799 200C803.418 200 807 203.582 807 208V359H791V208Z" fill="#F5B47A"/>
</g>
<defs>
<filter id="filter0_d_10402_193851" x="-41" y="43" width="557" height="498" filterUnits="userSpaceOnUse" color-interpolation-filters="sRGB">
<feFlood flood-opacity="0" result="BackgroundImageFix"/>
<feColorMatrix in="SourceAlpha" type="matrix" values="0 0 0 0 0 0 0 0 0 0 0 0 0 0 0 0 0 0 127 0" result="hardAlpha"/>
<feOffset dx="16"/>
<feGaussianBlur stdDeviation="28"/>
<feColorMatrix type="matrix" values="0 0 0 0 0 0 0 0 0 0 0 0 0 0 0 0 0 0 0.06 0"/>
<feBlend mode="normal" in2="BackgroundImageFix" result="effect1_dropShadow_10402_193851"/>
<feBlend mode="normal" in="SourceGraphic" in2="effect1_dropShadow_10402_193851" result="shape"/>
</filter>
<filter id="filter1_d_10402_193851" x="174" y="167" width="88" height="88" filterUnits="userSpaceOnUse" color-interpolation-filters="sRGB">
<feFlood flood-opacity="0" result="BackgroundImageFix"/>
<feColorMatrix in="SourceAlpha" type="matrix" values="0 0 0 0 0 0 0 0 0 0 0 0 0 0 0 0 0 0 127 0" result="hardAlpha"/>
<feOffset/>
<feGaussianBlur stdDeviation="16"/>
<feColorMatrix type="matrix" values="0 0 0 0 0 0 0 0 0 0 0 0 0 0 0 0 0 0 0.1 0"/>
<feBlend mode="normal" in2="BackgroundImageFix" result="effect1_dropShadow_10402_193851"/>
<feBlend mode="normal" in="SourceGraphic" in2="effect1_dropShadow_10402_193851" result="shape"/>
</filter>
<filter id="filter2_d_10402_193851" x="164" y="-40" width="493" height="262" filterUnits="userSpaceOnUse" color-interpolation-filters="sRGB">
<feFlood flood-opacity="0" result="BackgroundImageFix"/>
<feColorMatrix in="SourceAlpha" type="matrix" values="0 0 0 0 0 0 0 0 0 0 0 0 0 0 0 0 0 0 127 0" result="hardAlpha"/>
<feOffset dx="-16" dy="16"/>
<feGaussianBlur stdDeviation="28"/>
<feColorMatrix type="matrix" values="0 0 0 0 0 0 0 0 0 0 0 0 0 0 0 0 0 0 0.06 0"/>
<feBlend mode="normal" in2="BackgroundImageFix" result="effect1_dropShadow_10402_193851"/>
<feBlend mode="normal" in="SourceGraphic" in2="effect1_dropShadow_10402_193851" result="shape"/>
</filter>
<filter id="filter3_d_10402_193851" x="459" y="490" width="268" height="60" filterUnits="userSpaceOnUse" color-interpolation-filters="sRGB">
<feFlood flood-opacity="0" result="BackgroundImageFix"/>
<feColorMatrix in="SourceAlpha" type="matrix" values="0 0 0 0 0 0 0 0 0 0 0 0 0 0 0 0 0 0 127 0" result="hardAlpha"/>
<feOffset dy="3"/>
<feGaussianBlur stdDeviation="8"/>
<feColorMatrix type="matrix" values="0 0 0 0 0 0 0 0 0 0 0 0 0 0 0 0 0 0 0.1 0"/>
<feBlend mode="normal" in2="BackgroundImageFix" result="effect1_dropShadow_10402_193851"/>
<feBlend mode="normal" in="SourceGraphic" in2="effect1_dropShadow_10402_193851" result="shape"/>
</filter>
<filter id="filter4_d_10402_193851" x="609" y="474" width="86" height="86" filterUnits="userSpaceOnUse" color-interpolation-filters="sRGB">
<feFlood flood-opacity="0" result="BackgroundImageFix"/>
<feColorMatrix in="SourceAlpha" type="matrix" values="0 0 0 0 0 0 0 0 0 0 0 0 0 0 0 0 0 0 127 0" result="hardAlpha"/>
<feOffset/>
<feGaussianBlur stdDeviation="16"/>
<feColorMatrix type="matrix" values="0 0 0 0 0 0 0 0 0 0 0 0 0 0 0 0 0 0 0.1 0"/>
<feBlend mode="normal" in2="BackgroundImageFix" result="effect1_dropShadow_10402_193851"/>
<feBlend mode="normal" in="SourceGraphic" in2="effect1_dropShadow_10402_193851" result="shape"/>
</filter>
<linearGradient id="paint0_linear_10402_193851" x1="229" y1="210" x2="229" y2="493" gradientUnits="userSpaceOnUse">
<stop stop-color="#E0FFEC"/>
<stop offset="1" stop-color="white" stop-opacity="0"/>
</linearGradient>
<linearGradient id="paint1_linear_10402_193851" x1="219" y1="195" x2="219" y2="383" gradientUnits="userSpaceOnUse">
<stop stop-color="#CDFFE0" stop-opacity="0.22"/>
<stop offset="1" stop-color="#00AF43" stop-opacity="0.39"/>
</linearGradient>
<linearGradient id="paint2_linear_10402_193851" x1="272.262" y1="48.0078" x2="351.659" y2="81.2214" gradientUnits="userSpaceOnUse">
<stop offset="0.107292" stop-color="#FFB61F"/>
<stop offset="0.961458" stop-color="#FF671E"/>
</linearGradient>
<clipPath id="clip0_10402_193851">
<rect width="805" height="531" fill="white"/>
</clipPath>
<clipPath id="clip1_10402_193851">
<rect width="445" height="275" fill="white" transform="translate(-1 210)"/>
</clipPath>
</defs>
</svg>
