<svg width="175" height="11" viewBox="0 0 175 11" fill="none" xmlns="http://www.w3.org/2000/svg">
<path fill-rule="evenodd" clip-rule="evenodd" d="M74.343 1.18221C66.1194 1.51137 57.9923 1.91611 50.0671 2.35859C38.8481 2.98454 27.6334 3.63208 16.4863 4.65734C12.9775 4.98111 9.4142 5.18615 5.92728 5.59086C3.73842 5.84448 0.836029 6.20597 0.455127 6.28152C0.2559 6.32469 0.168984 6.3895 0.140899 6.41108C-0.0565732 6.56218 -0.0205418 6.70781 0.0909202 6.82113C0.135681 6.86969 0.248866 6.98846 0.563066 7.00465C21.5758 8.11085 43.0626 5.9524 64.1008 5.72577C100.585 5.33725 138.175 6.88054 174.369 10.2477C174.685 10.2747 174.992 10.1398 175.036 9.94011C175.089 9.74584 174.861 9.55698 174.545 9.52999C138.289 6.15742 100.638 4.60872 64.0832 5.00264C44.4765 5.21309 24.4826 7.10717 4.84864 6.45963C5.29976 6.40567 5.74212 6.35169 6.14584 6.30312C9.61872 5.89841 13.1671 5.69877 16.6619 5.37501C27.7853 4.34974 38.9771 3.70221 50.1812 3.08165C64.0833 2.30461 78.5909 1.63549 93.2126 1.32251C98.4434 1.37108 103.657 1.41966 108.87 1.47902C120.148 1.60853 131.478 1.98626 142.73 2.49349C146.118 2.64998 149.505 2.81185 152.893 2.95215C154.016 3.00072 156.913 3.14099 157.316 3.1302C157.817 3.11941 157.913 2.86042 157.922 2.81725C157.948 2.72012 157.931 2.58521 157.685 2.47189C157.659 2.4557 157.501 2.4017 157.15 2.36933C136.691 0.459099 114.847 0.140777 93.2301 0.599448C70.4287 0.399791 47.5395 0.313414 24.796 0.22168C24.4704 0.22168 24.2044 0.383587 24.2018 0.583244C24.2 0.7829 24.4624 0.944813 24.788 0.950209C41.2563 1.01496 57.808 1.07968 74.343 1.18221Z" fill="#005822"/>
</svg>
