<svg width="113" height="92" viewBox="0 0 113 92" fill="none" xmlns="http://www.w3.org/2000/svg">
<path fill-rule="evenodd" clip-rule="evenodd" d="M54.3503 32.2442C51.4631 31.9184 49.1319 32.1829 47.3608 32.5152C30.4412 35.769 26.9344 53.5622 28.5112 70.5669C28.9315 75.1231 30.9546 82.0848 34.4289 86.6373C36.8691 89.8373 40.006 91.8701 43.7721 91.3045C47.8812 90.7052 51.1078 87.1176 53.4674 82.3509C56.8853 75.4603 58.5153 66.123 58.6817 60.565C58.8718 54.1538 58.1987 44.1365 56.3988 34.3633C59.5095 34.9861 63.1797 36.3057 67.4054 38.8807C69.2867 40.018 71.1965 41.8278 72.9971 44.0183C70.4761 47.0643 68.4304 50.8555 67.0321 55.3299C65.8616 59.0934 64.7841 67.6388 65.9579 74.4392C66.7991 79.2931 68.805 83.2424 72.4685 84.4027C77.0194 85.8364 80.0044 83.6835 81.8323 80.0247C84.4086 74.8745 84.5894 66.634 83.7361 62.1079C82.7409 56.8424 79.3435 49.7287 75.1994 44.2315C84.2464 34.4873 98.8263 33.9626 110.862 44.8293C111.223 45.1486 111.733 45.1086 112.002 44.7423C112.265 44.36 112.181 43.7793 111.82 43.46C99.084 31.9652 83.6486 32.4926 74.0634 42.79C72.1424 40.4631 70.0977 38.5222 68.0883 37.3053C63.4321 34.4721 59.4099 33.0816 56.0379 32.4811C55.673 30.6539 55.2664 28.8418 54.8144 27.064C52.7885 19.0792 49.8716 11.9543 45.9964 7.97732C37.0425 -1.21414 26.0449 -0.703769 17.1334 4.85902C8.30927 10.3724 1.56791 20.8315 0.945127 31.4592C0.916407 31.9546 1.26008 32.4238 1.70819 32.496C2.15644 32.5682 2.54567 32.2304 2.57425 31.7349C3.16656 21.6214 9.6238 11.6959 18.0243 6.46081C26.3377 1.27509 36.5966 0.689308 44.9454 9.2542C48.6304 13.048 51.32 19.8235 53.2466 27.4129C53.6479 28.9933 54.0134 30.6047 54.3503 32.2442ZM74.1319 45.4605C71.7935 48.3329 69.8866 51.8764 68.5833 56.065C67.4684 59.6468 66.4377 67.7621 67.5623 74.2568C68.2589 78.2823 69.7431 81.7008 72.782 82.6548C76.4937 83.8337 78.8985 82.0154 80.3882 79.0353C82.7967 74.2511 82.9348 66.547 82.138 62.324C81.2058 57.3772 78.0218 50.6539 74.1319 45.4605ZM54.7114 34.0906C51.8319 33.7261 49.5195 33.9838 47.7749 34.3065C31.7317 37.3885 28.6412 54.4208 30.1347 70.5392C30.5245 74.783 32.3901 81.2804 35.6349 85.5382C37.6704 88.2011 40.2716 89.9776 43.4208 89.5084C47.1032 88.973 49.9075 85.6453 52.0238 81.3795C55.3223 74.7294 56.8873 65.7031 57.0498 60.3441C57.2402 53.9328 56.5553 43.866 54.7114 34.0906Z" fill="url(#paint0_linear_10402_194267)"/>
<defs>
<linearGradient id="paint0_linear_10402_194267" x1="32.0451" y1="104.128" x2="36.8665" y2="-35.3113" gradientUnits="userSpaceOnUse">
<stop offset="0.107292" stop-color="#FFB61F"/>
<stop offset="0.961458" stop-color="#FF671E"/>
</linearGradient>
</defs>
</svg>
